<?xml version="1.0" encoding="UTF-8" standalone="no"?>
<!-- Created with Inkscape (http://www.inkscape.org/) -->
<svg
   xmlns:dc="http://purl.org/dc/elements/1.1/"
   xmlns:cc="http://creativecommons.org/ns#"
   xmlns:rdf="http://www.w3.org/1999/02/22-rdf-syntax-ns#"
   xmlns:svg="http://www.w3.org/2000/svg"
   xmlns="http://www.w3.org/2000/svg"
   xmlns:sodipodi="http://sodipodi.sourceforge.net/DTD/sodipodi-0.dtd"
   xmlns:inkscape="http://www.inkscape.org/namespaces/inkscape"
   width="744.09448819"
   height="1052.3622047"
   id="svg6509"
   sodipodi:version="0.32"
   inkscape:version="0.46"
   sodipodi:docname="meuligoe.svg"
   inkscape:output_extension="org.inkscape.output.svg.inkscape">
  <defs
     id="defs6511">
    <filter
       inkscape:collect="always"
       id="filter46405">
      <feGaussianBlur
         inkscape:collect="always"
         stdDeviation="0.38058594"
         id="feGaussianBlur46407" />
    </filter>
    <inkscape:perspective
       sodipodi:type="inkscape:persp3d"
       inkscape:vp_x="0 : 526.18109 : 1"
       inkscape:vp_y="0 : 1000 : 0"
       inkscape:vp_z="744.09448 : 526.18109 : 1"
       inkscape:persp3d-origin="372.04724 : 350.78739 : 1"
       id="perspective6517" />
  </defs>
  <sodipodi:namedview
     id="base"
     pagecolor="#ffffff"
     bordercolor="#666666"
     borderopacity="1.0"
     gridtolerance="10000"
     guidetolerance="10"
     objecttolerance="10"
     inkscape:pageopacity="0.0"
     inkscape:pageshadow="2"
     inkscape:zoom="0.35"
     inkscape:cx="375"
     inkscape:cy="520"
     inkscape:document-units="px"
     inkscape:current-layer="layer1"
     showgrid="false"
     inkscape:window-width="641"
     inkscape:window-height="644"
     inkscape:window-x="374"
     inkscape:window-y="81" />
  <metadata
     id="metadata6514">
    <rdf:RDF>
      <cc:Work
         rdf:about="">
        <dc:format>image/svg+xml</dc:format>
        <dc:type
           rdf:resource="http://purl.org/dc/dcmitype/StillImage" />
      </cc:Work>
    </rdf:RDF>
  </metadata>
  <g
     inkscape:label="Layer 1"
     inkscape:groupmode="layer"
     id="layer1">
    <g
       id="g6381"
       transform="matrix(0.8589425,0,0,0.8539118,-288.82125,-65.600743)"
       style="fill:#800000;fill-opacity:1;stroke:none;stroke-opacity:1;filter:url(#filter46405)"
       inkscape:export-filename="../../../../home/princeofgiri/Desktop/usplash-theme-srimulat-0.4/usplash_640_400.html"
       inkscape:export-xdpi="90"
       inkscape:export-ydpi="90">
      <path
         id="path6383"
         d="M 887.53125,455.09375 L 881.9375,460.28125 C 881.3299,459.99645 880.48852,459.875 879.40625,459.875 C 877.33655,459.87501 875.46443,460.52135 873.8125,461.8125 C 872.1796,463.10368 871.37497,465.1396 871.375,467.96875 C 871.375,470.94982 872.34453,473.10837 874.28125,474.4375 C 875.34455,475.14004 876.55804,475.6337 877.90625,475.9375 C 879.27335,476.2413 880.8892,476.40624 882.75,476.40625 L 882.75,477 C 882.75,478.36711 882.29867,479.75115 881.40625,481.15625 C 880.45685,482.65627 879.03604,483.91888 877.15625,484.90625 C 877.76385,485.02017 878.36792,485.06247 878.9375,485.0625 C 881.4249,485.06249 883.70491,484.30026 885.8125,482.78125 C 887.9391,481.26223 889.00003,479.09144 889,476.28125 L 902.21875,476.28125 L 902.28125,476.28125 L 912.625,476.28125 C 914.201,477.85723 915.38437,478.9003 916.125,479.375 C 916.8844,479.86867 918.50588,480.12497 921.03125,480.125 C 923.76545,480.12499 926.14358,479.27139 928.15625,477.5625 C 930.16895,475.85361 931.18742,473.25599 931.1875,469.78125 C 931.1874,466.42044 930.36398,463.88968 928.75,462.21875 C 927.1361,460.54785 925.60598,459.71878 924.125,459.71875 C 923.7832,459.68079 923.22827,459.63849 922.46875,459.5625 C 921.72825,459.48657 921.05738,459.4375 920.46875,459.4375 C 920.41175,459.43751 919.96039,459.41298 919.125,459.375 C 918.2895,459.33704 917.70445,459.31253 917.34375,459.3125 L 913.21875,459.21875 L 911.0625,459.1875 L 911.0625,468.5625 L 902.28125,468.5625 L 902.21875,468.5625 L 888.84375,468.5625 L 888.75,465.96875 L 888.5,462.65625 L 888.1875,460 L 887.53125,455.09375 z M 879.84375,466.125 L 880.59375,466.3125 L 881.21875,466.65625 C 881.59855,466.96006 881.78123,467.37459 881.78125,467.90625 C 881.78125,468.6088 881.49486,469.18828 880.90625,469.625 C 880.31765,470.06172 879.82954,470.28126 879.46875,470.28125 C 878.88015,470.28126 878.42881,470.08625 878.125,469.6875 C 877.7832,469.19383 877.625,468.69344 877.625,468.21875 C 877.72,467.74407 877.8481,467.37859 878,467.09375 C 878.2278,466.77097 878.56883,466.52139 879.0625,466.3125 C 879.4043,466.19859 879.67284,466.125 879.84375,466.125 z M 918.40625,467.15625 C 919.12775,467.15626 919.78632,467.18634 920.375,467.28125 C 920.9636,467.35721 921.37259,467.43079 921.5625,467.46875 C 921.7524,467.50674 921.9841,467.54905 922.25,467.625 C 923.2943,467.9478 923.81237,468.51504 923.8125,469.3125 C 923.8124,469.92011 923.53162,470.61549 923,471.375 C 922.4873,472.11552 921.93232,472.46874 921.34375,472.46875 C 920.54625,472.46875 919.83299,472.01744 919.1875,471.125 C 918.5419,470.2136 918.21878,469.29313 918.21875,468.34375 C 918.23775,468.17287 918.27448,467.95334 918.3125,467.6875 C 918.3505,467.42168 918.36828,467.25119 918.40625,467.15625 z"
         style="font-size:51.26673126px;font-style:normal;font-variant:normal;font-weight:normal;font-stretch:normal;text-align:start;line-height:125%;writing-mode:lr-tb;text-anchor:start;fill:#800000;fill-opacity:1;stroke:none;stroke-width:1px;stroke-linecap:butt;stroke-linejoin:miter;stroke-opacity:1;font-family:Cortoba;-inkscape-font-specification:Cortoba" />
      <path
         id="path6385"
         d="M 858.71875,436.40625 L 852.71875,443.15625 L 855,468.5625 L 844.0625,468.5625 L 842.09375,468.5625 L 829.78125,468.5625 L 828.4375,455.0625 L 822.21875,460.34375 L 823.03125,468.5625 L 804.25,468.5625 L 794.4375,468.5625 C 794.3045,467.76503 794.18307,467.0028 794.03125,466.28125 C 793.87925,465.55973 793.68982,464.90666 793.5,464.375 C 793.1012,463.12183 792.60748,461.96958 792,460.90625 C 790.8417,458.79864 788.50595,457.75001 785.03125,457.75 L 745,457.75 C 746.538,455.98416 747.7515,454.25244 748.625,452.5625 C 749.5933,450.77768 750.06248,448.78408 750.0625,446.5625 L 749.96875,444.96875 L 749.6875,443.3125 C 749.4026,442.17327 749.00047,441.02102 748.46875,439.84375 C 747.78525,442.82485 746.64513,445.74563 745.03125,448.59375 C 743.41725,451.42294 741.42923,453.33742 739.09375,454.34375 C 736.68235,455.54 734.71326,456.94185 733.15625,458.59375 C 731.48535,460.37861 730.03992,462.66531 728.84375,465.4375 L 782.9375,465.4375 C 783.7349,465.43751 784.47266,465.83426 785.15625,466.59375 C 785.85875,467.35326 786.21867,468.01186 786.21875,468.5625 L 718.90625,468.5625 L 716.90625,468.5625 L 703.46875,468.5625 L 703.375,465.96875 L 703.125,462.65625 L 702.8125,460 L 702.15625,455.09375 L 696.5625,460.28125 C 695.9549,459.99645 695.11353,459.875 694.03125,459.875 C 691.96155,459.87501 690.12063,460.52135 688.46875,461.8125 C 686.83585,463.10368 685.99998,465.1396 686,467.96875 C 686,470.94982 686.96954,473.10837 688.90625,474.4375 C 689.96955,475.14004 691.18305,475.6337 692.53125,475.9375 C 693.89835,476.2413 695.5142,476.40624 697.375,476.40625 L 697.375,477 C 697.375,478.36711 696.92368,479.75115 696.03125,481.15625 C 695.08185,482.65627 693.66105,483.91888 691.78125,484.90625 C 692.38885,485.02017 692.99287,485.06247 693.5625,485.0625 C 696.0499,485.06249 698.32991,484.30026 700.4375,482.78125 C 702.5641,481.26223 703.62491,479.09144 703.625,476.28125 L 716.90625,476.28125 L 718.90625,476.28125 L 804.25,476.28125 L 842.09375,476.28125 L 844.0625,476.28125 L 853.96875,476.28125 L 861.71875,467.78125 L 858.71875,436.40625 z M 694.46875,466.125 L 695.25,466.3125 L 695.84375,466.65625 C 696.22355,466.96006 696.40618,467.37459 696.40625,467.90625 C 696.40615,468.6088 696.11987,469.18828 695.53125,469.625 C 694.94265,470.06172 694.45454,470.28126 694.09375,470.28125 C 693.50515,470.28126 693.05382,470.08625 692.75,469.6875 C 692.4082,469.19383 692.24989,468.69344 692.25,468.21875 C 692.3449,467.74407 692.47311,467.37859 692.625,467.09375 C 692.8529,466.77097 693.19378,466.52139 693.6875,466.3125 C 694.0293,466.19859 694.29784,466.125 694.46875,466.125 z M 756.46875,481.21875 C 755.48135,481.21875 754.64008,481.54191 753.9375,482.1875 C 753.2919,482.89004 752.96875,483.71911 752.96875,484.6875 C 752.96875,485.67485 753.30412,486.52292 753.96875,487.1875 C 754.65235,487.87104 755.48138,488.18749 756.46875,488.1875 C 757.45605,488.18749 758.29193,487.87104 758.9375,487.1875 C 759.621,486.54191 759.96875,485.69383 759.96875,484.6875 C 759.96875,483.70013 759.62103,482.88331 758.9375,482.21875 C 758.2729,481.55417 757.43708,481.21875 756.46875,481.21875 z M 764.8125,481.21875 C 763.8251,481.21875 762.98374,481.54191 762.28125,482.1875 C 761.63565,482.947 761.31253,483.77607 761.3125,484.6875 C 761.3125,485.14319 761.42287,485.59451 761.59375,486.03125 C 761.80255,486.52492 762.01544,486.92166 762.28125,487.1875 C 762.98375,487.87104 763.82507,488.18749 764.8125,488.1875 C 765.7998,488.18749 766.63562,487.87104 767.28125,487.1875 C 767.96475,486.54191 768.3125,485.69383 768.3125,484.6875 C 768.3125,483.70013 767.97703,482.88331 767.3125,482.21875 C 766.6479,481.55417 765.79977,481.21875 764.8125,481.21875 z M 821.09375,481.21875 C 820.10635,481.21875 819.26512,481.54191 818.5625,482.1875 C 817.9169,482.89004 817.59373,483.71911 817.59375,484.6875 C 817.59375,485.67485 817.92917,486.52292 818.59375,487.1875 C 819.27735,487.87104 820.10636,488.18749 821.09375,488.1875 C 822.08105,488.18749 822.91691,487.87104 823.5625,487.1875 C 824.246,486.54191 824.56248,485.69383 824.5625,484.6875 C 824.5625,483.70013 824.24601,482.88331 823.5625,482.21875 C 822.8979,481.55417 822.06206,481.21875 821.09375,481.21875 z M 829.4375,481.21875 C 828.4501,481.21875 827.60878,481.54191 826.90625,482.1875 C 826.26065,482.947 825.93751,483.77607 825.9375,484.6875 C 825.9375,485.14319 826.0166,485.59451 826.1875,486.03125 C 826.3963,486.52492 826.64048,486.92166 826.90625,487.1875 C 827.60875,487.87104 828.45012,488.18749 829.4375,488.1875 C 830.4248,488.18749 831.26067,487.87104 831.90625,487.1875 C 832.58975,486.54191 832.93749,485.69383 832.9375,484.6875 C 832.9375,483.70013 832.60201,482.88331 831.9375,482.21875 C 831.2729,481.55417 830.42482,481.21875 829.4375,481.21875 z M 760.65625,488.71875 C 759.66885,488.71874 758.82747,489.04192 758.125,489.6875 C 757.4794,490.447 757.15627,491.27609 757.15625,492.1875 C 757.15625,492.6432 757.23536,493.09454 757.40625,493.53125 C 757.61505,494.02492 757.85917,494.3904 758.125,494.65625 C 758.8275,495.33979 759.66887,495.68748 760.65625,495.6875 C 761.64355,495.68749 762.44817,495.33978 763.09375,494.65625 C 763.77725,494.01066 764.12499,493.19384 764.125,492.1875 C 764.125,491.20013 763.78951,490.3833 763.125,489.71875 C 762.4604,489.05418 761.64357,488.71874 760.65625,488.71875 z"
         style="font-size:51.26673126px;font-style:normal;font-variant:normal;font-weight:normal;font-stretch:normal;text-align:start;line-height:125%;writing-mode:lr-tb;text-anchor:start;fill:#800000;fill-opacity:1;stroke:none;stroke-width:1px;stroke-linecap:butt;stroke-linejoin:miter;stroke-opacity:1;font-family:Cortoba;-inkscape-font-specification:Cortoba" />
    </g>
  </g>
</svg>
