<?xml version="1.0" encoding="UTF-8" standalone="no"?>
<!-- Created with Inkscape (http://www.inkscape.org/) -->

<svg
   xmlns:dc="http://purl.org/dc/elements/1.1/"
   xmlns:cc="http://creativecommons.org/ns#"
   xmlns:rdf="http://www.w3.org/1999/02/22-rdf-syntax-ns#"
   xmlns:svg="http://www.w3.org/2000/svg"
   xmlns="http://www.w3.org/2000/svg"
   xmlns:sodipodi="http://sodipodi.sourceforge.net/DTD/sodipodi-0.dtd"
   xmlns:inkscape="http://www.inkscape.org/namespaces/inkscape"
   width="744.09448819"
   height="1052.3622047"
   id="svg2"
   version="1.1"
   inkscape:version="0.48.1 r9760"
   sodipodi:docname="buatan-indonesia.svg">
  <defs
     id="defs4" />
  <sodipodi:namedview
     id="base"
     pagecolor="#ffffff"
     bordercolor="#666666"
     borderopacity="1.0"
     inkscape:pageopacity="0.0"
     inkscape:pageshadow="2"
     inkscape:zoom="0.24748737"
     inkscape:cx="80.854008"
     inkscape:cy="645.44754"
     inkscape:document-units="px"
     inkscape:current-layer="layer1"
     showgrid="false"
     inkscape:window-width="763"
     inkscape:window-height="662"
     inkscape:window-x="2358"
     inkscape:window-y="94"
     inkscape:window-maximized="0"
     showguides="true"
     inkscape:guide-bbox="true" />
  <metadata
     id="metadata7">
    <rdf:RDF>
      <cc:Work
         rdf:about="">
        <dc:format>image/svg+xml</dc:format>
        <dc:type
           rdf:resource="http://purl.org/dc/dcmitype/StillImage" />
        <dc:title></dc:title>
      </cc:Work>
    </rdf:RDF>
  </metadata>
  <g
     inkscape:label="Layer 1"
     inkscape:groupmode="layer"
     id="layer1">
    <path
       transform="translate(91.428571,117.14286)"
       style="fill:#ff0000;fill-opacity:1;stroke:#ffffff;stroke-width:16.60000038;stroke-linecap:round;stroke-linejoin:bevel;stroke-miterlimit:4;stroke-opacity:1"
       d="m 494.28572,312.36218 c 0,198.82251 -161.17749,360 -360,360 -198.822509,0 -360,-161.17749 -360,-360 0,-198.82251 161.177491,-359.999997 360,-359.999997 198.82251,0 360,161.177487 360,359.999997 z"
       id="path2985"
       inkscape:export-filename="../../../tmp/buatan-indonesia.html"
       inkscape:export-xdpi="27.530001"
       inkscape:export-ydpi="27.530001" />
    <path
       style="fill:#ffffff;fill-opacity:1;stroke:#ffffff;stroke-width:16.60000038;stroke-linecap:round;stroke-linejoin:bevel;stroke-miterlimit:4;stroke-opacity:1"
       d="m 585.71429,429.50504 c 0,198.82251 -161.17749,360 -360,360 -198.822507,0 -360,-161.17749 -360,-360 z"
       id="path2987"
       inkscape:connector-curvature="0"
       sodipodi:nodetypes="cscc"
       inkscape:export-filename="../../../tmp/buatan-indonesia.html"
       inkscape:export-xdpi="27.530001"
       inkscape:export-ydpi="27.530001" />
    <path
       transform="translate(91.428571,117.14286)"
       style="fill:none;stroke:#000000;stroke-width:48.5;stroke-linecap:round;stroke-linejoin:bevel;stroke-miterlimit:4;stroke-opacity:1"
       d="m 494.28572,312.36218 c 0,198.82251 -161.17749,360 -360,360 -198.822509,0 -360,-161.17749 -360,-360 0,-198.82251 161.177491,-359.999997 360,-359.999997 198.82251,0 360,161.177487 360,359.999997 z"
       id="path2990"
       inkscape:export-filename="../../../tmp/buatan-indonesia.html"
       inkscape:export-xdpi="27.530001"
       inkscape:export-ydpi="27.530001" />
    <g
       id="g2253"
       transform="matrix(0.66709723,0,0,0.66709723,-24.38688,106.82577)"
       inkscape:export-filename="../../../tmp/buatan-indonesia.html"
       inkscape:export-xdpi="27.530001"
       inkscape:export-ydpi="27.530001">
      <path
         id="path2267"
         style="fill:#fde7a0"
         d="M 250.05635,898.88671 C 221.55,896.35638 201.535,888.98017 187.46726,875.82049 c -7.71513,-7.21712 -12.35863,-14.53946 -16.06322,-25.33009 -2.38144,-6.93657 -2.77552,-9.77087 -2.98799,-21.4904 -0.24128,-13.30793 -0.27799,-13.50452 -2.58041,-13.81758 -38.59367,-5.24758 -60.31656,-21.18888 -67.973159,-49.88194 -1.648738,-6.17864 -2.110726,-11.08894 -2.222,-23.61682 L 95.5,725.86733 86.154357,722.01174 C 59.401269,710.97463 45.039408,692.83058 42.03032,666.26765 c -1.7504,-15.45177 1.107468,-29.33922 9.366633,-45.51597 l 4.466522,-8.74831 -4.511007,-5.25169 C 39.954816,593.48261 29.075539,573.56827 24.537781,557.66782 20.956366,545.11842 20.01616,538.19644 20.007554,524.31538 19.990094,496.15336 29.016114,475.69315 50.530949,455.12483 79.953144,426.99703 124.7952,409.19922 185.5,401.55561 c 12.64956,-1.59276 47.56064,-3.55156 63.34384,-3.5541 l 9.34384,-0.002 -0.67703,-5.25 C 255.94163,380.58294 249.63569,354.19326 244.46827,338.16905 235.97149,311.8205 227.09885,291.50974 214.689,270 c -16.13164,-27.96063 -31.14411,-64.104 -37.3823,-90 -2.51417,-10.43685 -2.51888,-40.72148 -0.008,-53.20981 5.31859,-26.4558 18.02384,-49.133086 36.47888,-65.110251 18.38663,-15.917937 40.51633,-26.063203 75.61457,-34.665177 10.68416,-2.618504 13.11657,-2.933117 14.20397,-1.83717 0.72165,0.727325 8.76042,34.397408 17.86394,74.822408 9.10352,40.425 16.94444,74.4 17.42428,75.5 0.47983,1.1 28.42182,31.25 62.0933,67 66.0306,70.10662 70.33427,75.12378 114.51476,133.5 41.94863,55.42725 51.38573,66.34687 61.70056,71.39345 10.33362,5.05577 16.84985,5.60655 66.33018,5.60655 24.94081,0 46.39382,0.39803 47.67336,0.88451 4.57427,1.73913 20.42391,43.49827 27.76647,73.1565 8.45007,34.1317 11.52881,61.96301 10.72575,96.95899 -0.74618,32.51724 -4.11696,58.18722 -11.81802,89.99958 -3.2777,13.53986 -15.08265,49.9531 -19.20863,59.25042 l -2.55174,5.75 -50.67268,0 -50.67267,0 -3.63236,3.75834 c -1.99779,2.06709 -8.45404,8.9836 -14.34722,15.37003 -34.65795,37.55881 -84.09519,74.75922 -126.14448,94.9209 L 440.5,897.91148 420,899.03141 c -11.275,0.61596 -23.65,0.84404 -27.5,0.50684 -21.26521,-1.86246 -37.36476,-4.46309 -57.28431,-9.25336 l -11.28431,-2.71366 -12.47587,6.21438 L 298.97965,900 279.23982,899.86248 c -10.8569,-0.0756 -23.98946,-0.51473 -29.18347,-0.97577 z"
         inkscape:connector-curvature="0" />
      <path
         id="path2265"
         style="fill:#c6b788"
         d="M 253.5,898.95315 C 207.74641,895.82232 181.29229,879.90696 171.30021,849.5 c -2.26741,-6.89995 -2.64068,-9.79748 -2.71455,-21.07196 L 168.5,815.35607 158.26859,813.62479 C 137.89762,810.17776 125.27813,804.3193 113.91392,793.03365 100.82748,780.03766 95.834329,766.1379 95.94056,743 c 0.03409,-7.425 0.173909,-14.32421 0.31071,-15.33158 0.190163,-1.40031 -1.165602,-2.36871 -5.757835,-4.11272 C 57.950842,711.19688 42,689.79824 42,658.5 c 0,-13.09902 2.435042,-22.87884 9.025176,-36.2477 l 5.05157,-10.24769 -5.214372,-6.25231 C 35.2197,586.99593 25.191554,565.81776 21.427879,543.59041 19.234857,530.63895 19.885876,510.90069 22.876704,499.6635 34.8787,454.56939 87.126023,418.94822 161,405.49381 c 21.89691,-3.98801 36.77807,-5.4533 67.5,-6.64648 15.95,-0.61947 29.1863,-1.28733 29.41401,-1.48415 0.89146,-0.77056 -3.28832,-22.71861 -7.40109,-38.86318 -7.24766,-28.45042 -16.80779,-53.28481 -30.02652,-78 -33.88274,-63.35086 -45.47426,-95.42959 -45.48321,-125.87166 -0.006,-21.37729 4.53911,-42.02121 13.0189,-59.12834 11.33592,-22.869101 30.08196,-40.764697 55.47791,-52.961073 12.29451,-5.904423 20.75844,-8.806905 41.25594,-14.147632 14.52956,-3.785749 17.71866,-4.33383 18.77066,-3.225939 0.69703,0.734054 8.85119,35.059179 18.12036,76.278054 L 338.5,176.38682 402,243.96552 c 67.73939,72.09039 68.79697,73.32463 113.99374,133.03448 49.88679,65.90588 54.05149,70.12548 73.67147,74.64253 5.45913,1.25684 16.49591,1.70277 54.83479,2.21551 l 48,0.64196 3.20522,6.5 c 10.5341,21.36254 21.91848,56.98155 27.65217,86.51711 13.38058,68.92636 5.68379,146.12822 -21.68238,217.48289 l -5.17756,13.5 -50.77468,0.25918 -50.77468,0.25918 -24.72404,24.85574 C 556.62582,817.54476 540.325,832.9858 534,838.18752 c -28.49691,23.43602 -55.93498,41.30598 -84,54.70779 l -10.5,5.01404 -20,0.94569 c -30.33092,1.43418 -54.81,-1.19925 -86.30668,-9.28477 l -9.30669,-2.38912 -12.99458,6.40942 L 297.89747,900 281.19874,899.85293 C 272.01443,899.77204 259.55,899.36714 253.5,898.95315 z m 187.57339,-36.75014 c 49.19189,-29.26127 93.55432,-67.78689 130.68939,-113.49449 L 578.02556,741 l 46.53825,0 46.53824,0 1.43439,-3.43297 C 678.5074,723.27651 688.01823,680.25532 690.56872,656 c 2.03784,-19.37997 1.51228,-60.05238 -1.02083,-79 -3.21278,-24.03164 -11.17948,-58.56612 -17.79659,-77.14562 L 669.48819,493.5 642.99409,492.84805 C 608.39111,491.99656 590.3105,490.31659 573,486.3445 560.6738,483.51611 550.94839,477.05406 537.26976,462.60353 526.24586,450.95754 520.79753,444.16198 495.89673,411 453.59239,354.66063 448.63531,348.89955 374.88525,270.36153 c -37.77382,-40.22616 -68.93497,-73.97616 -69.24699,-75 C 305.32624,194.33769 299.85582,169.2 293.48177,139.5 278.4968,69.677295 279.04237,72 277.62704,72 c -2.54442,0 -25.47608,12.035488 -31.36229,16.460234 -10.1994,7.667025 -18.79222,17.753786 -23.81111,27.950876 -11.26451,22.88662 -12.24158,48.18083 -2.94454,76.22741 4.09558,12.35519 9.98749,24.23227 24.57277,49.53449 29.35189,50.91897 43.91012,87.80325 50.84803,128.82699 2.33175,13.78765 4.37944,43.02976 3.8864,55.5 l -0.3163,8 -36.5,0.62244 c -38.28241,0.65285 -55.33252,1.69624 -81,4.95687 -34.65039,4.40177 -60.96508,11.31475 -81.5,21.41039 -29.866966,14.68359 -42.5,32.44788 -42.5,59.76256 0,24.25252 8.742561,45.1482 26.271108,62.79082 13.151996,13.23758 28.661102,21.93837 46.480842,26.07627 7.23199,1.67934 13.52815,2.12697 36.33043,2.58297 l 27.58239,0.55158 60.66761,-27.32674 c 33.36719,-15.02971 60.66357,-27.79933 60.65862,-28.37695 -0.0157,-1.82873 -12.27958,-15.51191 -18.50599,-20.64764 -15.52619,-12.80644 -38.88009,-20.12821 -58.77067,-18.42542 -13.9213,1.19178 -34.9168,7.24515 -60.5522,17.45826 -9.84751,3.92323 -10.25375,3.99383 -26.85751,4.66785 l -16.85877,0.68436 -15.72293,-16.7251 C 108.69996,514.96443 102,507.0198 102,505.91871 c 0,-1.814 0.94139,-1.9236 17.25,-2.00822 9.4875,-0.0492 22.425,-0.43188 28.75,-0.85032 10.43418,-0.69029 12.76361,-1.23559 25.13407,-5.88361 25.34846,-9.52433 44.02052,-13.2711 65.98549,-13.24078 47.37602,0.0654 83.66576,19.39739 110.79476,59.02169 8.03779,11.73991 16.30572,27.46759 15.90909,30.2631 -0.25264,1.78065 -2.34748,3.24768 -9.57341,6.70432 -5.0875,2.43369 -9.24118,4.68369 -9.23041,5 0.0108,0.31631 3.94828,3.02231 8.75,6.01333 11.59222,7.22084 29.60997,25.18188 38.13463,38.01458 7.751,11.66808 15.31417,26.5371 14.90302,29.29902 -0.23518,1.57977 -2.83363,3.14097 -11.07821,6.65602 -5.92404,2.52569 -10.87404,4.90909 -11,5.29644 -0.12597,0.38735 2.92097,3.28348 6.77097,6.43584 14.4099,11.79873 28.21109,28.29299 41.383,49.45817 4.88144,7.84371 6.15008,10.62642 5.39288,11.82909 -0.54456,0.86494 -9.20587,5.48658 -19.24736,10.27031 -10.04148,4.78373 -18.44459,8.88505 -18.67358,9.11404 -0.22899,0.22899 5.80488,6.66502 13.4086,14.30231 15.10738,15.17405 25.42866,29.35112 34.70499,47.66994 4.26646,8.42538 4.7373,9.92287 3.48247,11.07602 -0.79805,0.73339 -18.4385,8.89873 -39.201,18.14521 -20.7625,9.24647 -37.75,17.13783 -37.75,17.53634 0,1.487 14.10871,2.69111 33.07339,2.82267 L 429.64678,869 441.07339,862.20301 z M 346,840.10641 c 29.425,-13.32474 53.89068,-24.6129 54.36817,-25.08478 2.09051,-2.06594 -27.13246,-34.8816 -34.64143,-38.90028 -2.35298,-1.25928 -5.6148,0.0378 -50.96412,20.26663 L 266.31237,818 235.65618,818 205,818 l 0,4.2899 c 0,2.35945 0.69742,6.9675 1.54983,10.24011 5.97014,22.92091 29.02553,32.90884 73.95017,32.03629 l 12,-0.23307 53.5,-24.22682 z m -25.47001,-87.63998 c 33.94604,-15.14347 62.84027,-28.12051 64.2094,-28.83787 l 2.48932,-1.30428 -4.69384,-5.41214 C 376.67945,710.16065 372.41047,706.28131 363.5,699.6146 355.8456,693.88766 347.51433,689 345.40689,689 c -0.73766,0 -24.17049,10.125 -52.07295,22.5 l -50.73174,22.5 -55.24208,0 c -32.41904,0 -55.47625,0.37888 -55.80887,0.91707 -1.6053,2.59743 -1.66212,10.18971 -0.11607,15.50796 3.72277,12.80585 16.898,21.74484 38.50191,26.12235 12.39205,2.51095 23.60633,3.15409 57.71786,3.31012 L 258.80991,780 320.52999,752.46643 z m -24.07554,-82.07977 c 33.52494,-14.91234 61.11019,-27.58059 61.30055,-28.15165 0.54222,-1.62667 -17.55685,-19.41477 -24.54927,-24.12748 -8.36288,-5.63637 -22.10358,-12.15853 -26.87036,-12.75429 -3.35429,-0.41923 -10.13038,2.35079 -54.02176,22.0837 L 202.12721,650 179.20882,650 C 136.67861,650 108.38733,645.97422 92.241148,637.6247 90.513143,636.73112 88.82833,636 88.497121,636 c -0.33121,0 -2.025414,3.0375 -3.764898,6.75 -9.75277,20.81488 -0.01604,39.72312 24.863057,48.28278 16.04099,5.51891 31.91194,6.7428 85.40472,6.58596 L 235.5,697.5 296.45445,670.38666 z"
         inkscape:connector-curvature="0" />
      <path
         id="path2263"
         style="fill:#a4a29b"
         d="M 246.5,898.3405 C 202.67412,893.08386 178.57232,876.50915 170.39,846 c -1.19207,-4.44486 -1.75312,-10.3356 -1.77448,-18.63126 l -0.0312,-12.13125 -10.04214,-1.66212 c -12.03029,-1.99118 -24.46596,-6.1142 -32.30336,-10.71011 -8.60188,-5.0442 -19.11041,-16.06537 -23.00431,-24.12654 C 97.511696,766.89138 96.633618,762.27926 96.430366,743 l -0.184494,-17.5 -6.872936,-2.55246 C 76.869751,718.30414 69.913101,713.92391 60.881534,705.00805 54.080323,698.29397 51.51633,694.91858 48.721609,689 c -5.26467,-11.14936 -7.101524,-20.94701 -6.448659,-34.39666 0.622473,-12.82355 3.367892,-22.41653 9.960014,-34.80206 l 4.097598,-7.69873 -4.583341,-5.36485 C 20.457353,570.11252 11.143228,519.40925 29.145981,483.70341 44.190621,453.86456 77.514564,429.58105 123.43425,414.99454 155.55181,404.79232 186.50676,400.19133 230,399.15516 l 27.5,-0.65516 -0.19988,-5.81221 c -0.43894,-12.76411 -7.96647,-42.91559 -16.82135,-67.37788 -7.33877,-20.27388 -14.85904,-36.81044 -24.45852,-53.78259 -15.03817,-26.58791 -28.86607,-57.87975 -34.93957,-79.06649 -5.0311,-17.55041 -6.44424,-28.05045 -5.78113,-42.95541 2.19481,-49.33334 23.21484,-83.334894 64.89825,-104.978048 5.66621,-2.942049 14.3522,-6.781801 19.3022,-8.532783 10.94727,-3.872417 41.52381,-11.83344 43.23231,-11.256125 1.61905,0.547093 0.79983,-2.813214 19.32342,79.261536 8.87533,39.325 16.43111,72.00053 16.79062,72.6123 0.35951,0.61176 28.68867,30.92441 62.9537,67.36145 34.26502,36.43704 66.68929,71.7115 72.05393,78.3877 5.36463,6.6762 23.20624,29.91355 39.64801,51.63855 43.24079,57.13533 53.48545,68.95351 64.09644,73.94126 10.50767,4.93919 14.66806,5.30332 66.10321,5.78545 35.80862,0.33566 48.4578,0.76048 49.19795,1.65231 1.86524,2.24746 11.0087,24.57557 16.10271,39.32238 27.40663,79.34038 27.53939,162.94863 0.39291,247.43944 -6.00271,18.68286 -12.27387,35.16062 -13.73546,36.09061 -0.63786,0.40586 -23.57413,0.74482 -50.96949,0.75324 L 594.88051,779 570.69026,803.35418 c -41.50608,41.78735 -74.82704,66.68652 -118.54454,88.58271 -9.85613,4.93651 -10.89051,5.23038 -21.5,6.10829 -32.71192,2.70682 -61.5476,0.23766 -94.88635,-8.12498 L 324.01873,886.97519 312.02474,892.9876 300.03075,899 274.76538,898.85017 C 260.86942,898.76776 248.15,898.53841 246.5,898.3405 z M 442.10021,862.5892 C 492.12778,832.2614 536.09378,794.03072 571.86738,749.75 l 6.26109,-7.75 46.31332,0 c 35.84426,0 46.54208,-0.28256 47.32532,-1.25 3.15598,-3.8982 12.76607,-40.61681 16.61879,-63.49771 C 697.92615,620.5937 692.168,557.16448 672.20404,499 c -1.88357,-5.48773 -1.89874,-5.50148 -6.79591,-6.16239 C 662.70866,492.47329 653.075,492.13396 644,492.08354 613.8689,491.91613 582.86487,488.78252 569.40238,484.54387 551.23444,478.82372 536.98516,464.43811 498.04129,412.5 454.5778,354.53422 449.60173,348.73652 376.78651,271.22388 339.66444,231.70703 308.57626,198.27816 307.70165,196.93753 306.82705,195.59689 300.21069,167.05 292.99864,133.5 285.78658,99.95 279.53077,72.141765 279.09683,71.703922 c -0.89266,-0.900685 -8.08511,1.755076 -17.34505,6.404541 -18.19577,9.136189 -32.56381,22.787217 -40.07112,38.071437 -5.37264,10.93823 -7.39768,18.28521 -8.62996,31.31007 -1.99391,21.07518 2.92971,43.63518 14.56615,66.74207 1.88551,3.74411 9.45474,17.30737 16.82053,30.14058 15.14607,26.38858 19.73156,35.22233 26.79912,51.62738 14.52712,33.72001 23.09301,66.2333 25.68717,97.5 0.83831,10.10389 1.6153,35.4191 1.19983,39.09167 -0.0852,0.75283 -11.21995,1.29104 -35.8735,1.73398 -43.51986,0.78191 -66.30376,2.42352 -94.25,6.79085 -66.5482,10.39989 -102.630389,31.77793 -110.59821,65.52741 -2.031528,8.60499 -1.347047,26.60291 1.402522,36.87827 7.563054,28.26374 28.904836,51.9711 56.682708,62.96557 12.53006,4.95939 21.89581,6.24628 51.15096,7.02834 l 26.86202,0.71809 60.95245,-27.47445 c 33.52385,-15.11095 61.12778,-28.00041 61.34206,-28.64325 0.60441,-1.81323 -10.48902,-14.76074 -18.28162,-21.3371 -7.78243,-6.56776 -21.81728,-13.94759 -31.01289,-16.30725 -23.64565,-6.06764 -44.35258,-2.83654 -86.44674,13.4891 l -13.44674,5.21514 -15.55326,0.76755 c -8.55429,0.42215 -16.12351,0.55635 -16.82049,0.29822 C 132.34977,539.54474 103,507.78715 103,506.44707 c 0,-1.57839 12.35574,-2.43376 35.2611,-2.44108 l 18.7611,-0.006 12.7389,-4.86375 c 14.74537,-5.62983 26.46261,-9.10632 41.2389,-12.23554 13.72492,-2.90657 38.69336,-3.15281 53,-0.52268 42.86491,7.88027 75.73353,34.4138 98.40935,79.44197 2.01163,3.99455 3.37924,7.71305 3.03914,8.26334 -0.34009,0.55029 -5.08014,3.07141 -10.53342,5.60249 -8.68395,4.03056 -11.94779,6.31417 -9.02451,6.31417 0.48981,0 5.10231,2.7643 10.25,6.14288 12.63602,8.2934 28.42764,24.24872 37.38919,37.77679 7.97931,12.04531 15.57232,26.65076 14.84306,28.5512 -0.27625,0.71988 -5.64814,3.4743 -11.93754,6.12095 C 390.14587,667.23847 385,669.891 385,670.48634 c 0,0.59535 1.40205,1.91066 3.11566,2.92291 5.47504,3.23419 23.55977,21.44672 31.21031,31.43088 10.46732,13.66013 21.14807,31.19047 20.04861,32.90582 -0.48102,0.75046 -9.54854,5.45999 -20.15004,10.46562 l -19.27546,9.10113 11.07147,10.47208 c 10.81249,10.22713 19.42062,20.41131 27.81851,32.91179 6.16363,9.17472 15.27665,26.84031 14.66298,28.42421 -0.2939,0.75857 -18.07709,9.21675 -39.5182,18.79595 C 392.54273,857.49593 375,865.68804 375,866.12142 c 0,0.43337 1.4625,1.04877 3.25,1.36754 10.70759,1.90955 17.17169,2.32521 33.85021,2.17668 l 18.6002,-0.16564 11.3998,-6.9108 z M 347.22739,840.31592 C 377.35233,826.73968 402,815.22739 402,814.73307 c 0,-0.49433 -3.82664,-5.7763 -8.50365,-11.73772 -8.13454,-10.36847 -23.14939,-25.40134 -27.92212,-27.95562 -2.01388,-1.0778 -7.4912,1.12712 -50.61654,20.37585 L 266.59939,817 l -30.83108,0 c -27.6073,0 -30.89665,0.17086 -31.45814,1.63409 -0.34488,0.89874 -0.10333,5.0028 0.53677,9.12013 3.20757,20.63188 17.51674,32.14101 44.96702,36.16779 3.12732,0.45876 14.00087,0.88898 24.16343,0.95605 L 292.45479,865 347.22739,840.31592 z M 323.5,752.19856 c 34.65,-15.56579 63.35938,-28.66018 63.79863,-29.09863 2.19573,-2.19177 -15.29191,-19.19318 -28.8912,-28.08792 -13.42073,-8.77793 -6.30074,-10.49492 -64.69477,15.6012 L 242.5,733.5 187.45494,733.1506 c -50.8422,-0.32273 -55.15278,-0.21961 -56.45588,1.35053 -1.98417,2.39078 -1.72526,13.9637 0.42177,18.85223 2.48203,5.65129 10.25227,13.4538 16.56292,16.6317 17.25449,8.68896 34.71252,10.86002 85.51625,10.63469 l 27,-0.11975 63,-28.30144 z M 296,671.36042 c 33.275,-14.66897 61.12925,-27.24633 61.89834,-27.94969 1.17966,-1.07885 0.73487,-2.07126 -2.84438,-6.34628 -12.43359,-14.85056 -32.01872,-28.23211 -47.09756,-32.17943 l -4.54359,-1.18942 -50.78549,22.76211 -50.7855,22.76212 -32.17091,-0.49108 c -33.27384,-0.50792 -43.41186,-1.47843 -59.88954,-5.73317 -4.24525,-1.09618 -10.263739,-3.11862 -13.37443,-4.49432 -8.426697,-3.72668 -9.026525,-3.52616 -12.709479,4.24874 -2.837159,5.98938 -3.19206,7.70781 -3.149526,15.25 0.04029,7.14522 0.462697,9.30008 2.650196,13.5198 5.241091,10.11015 16.172538,17.6747 31.655619,21.90565 13.57751,3.71024 24.25064,4.36498 73.14625,4.48715 l 47.5,0.11869 60.5,-26.67087 z"
         inkscape:connector-curvature="0" />
      <path
         id="path2261"
         style="fill:#a49873"
         d="m 252.93218,897.94992 c -39.63335,-2.85261 -65.87652,-16.21167 -76.71884,-39.05363 -5.52673,-11.64338 -6.55938,-16.4612 -6.7139,-31.32355 l -0.1344,-12.92726 -9.98297,-1.6748 c -20.4546,-3.43159 -34.1,-9.65016 -44.88448,-20.45503 C 101.54403,779.53759 96.950378,766.17029 96.672562,740.64573 L 96.5,724.79146 90.191414,722.41947 C 77.357343,717.59394 69.795043,712.88919 61.463476,704.54688 48.221623,691.28796 42.95338,678.05803 42.928202,658 c -0.01612,-12.84397 2.891732,-23.9613 9.730867,-37.20312 l 4.558657,-8.8264 -4.468453,-5.23524 C 31.794828,582.18501 21,554.16596 21,524.32685 c 0,-40.94748 22.372885,-71.55563 69.5,-95.08234 37.33062,-18.63613 76.96188,-27.08091 138.25,-29.45884 29.8365,-1.15763 30.25,-1.20281 30.25,-3.30478 0,-3.77799 -4.01929,-24.63805 -7.10831,-36.89204 C 244.25645,329.30021 231.13289,296.23654 217.12613,272 202.02602,245.8716 185.9352,208.48424 179.68295,185 c -2.89012,-10.85565 -3.06466,-12.56458 -3.11521,-30.5 -0.0591,-20.97931 1.63293,-31.77208 7.50267,-47.85554 11.6534,-31.93108 37.70265,-56.217511 74.68497,-69.630844 10.84882,-3.934822 41.9446,-12.065973 43.64633,-11.412959 0.76226,0.292504 7.85605,29.80918 18.07065,75.190443 9.24868,41.08989 17.08845,75.21077 17.42171,75.82417 0.33326,0.6134 28.65001,30.93729 62.92611,67.38642 34.2761,36.44913 66.70748,71.72226 72.06973,78.38473 5.36226,6.66247 22.52234,28.98858 38.13352,49.61358 45.60226,60.24828 54.62128,70.73645 65.36405,76.01146 11.68462,5.73748 15.56407,6.12715 68.0847,6.83865 l 47.97218,0.64989 4.38385,10 c 37.54855,85.65192 42.08802,176.92045 13.50373,271.5 -3.94704,13.05994 -13.03594,37.86958 -14.56223,39.75 -0.78715,0.96978 -12.21474,1.25 -50.97637,1.25 l -49.96176,0 -24.16579,24.36171 C 528.18653,845.18536 492.59751,871.5889 450,891.88384 l -10.5,5.00256 -19.5,1.03698 c -28.85383,1.5344 -53.19598,-0.94988 -83.18122,-8.48919 C 331.49411,888.09539 325.97469,887 324.5534,887 c -1.42128,0 -7.97031,2.7 -14.5534,6 l -11.96925,6 -17.26537,-0.14473 c -9.49596,-0.0796 -22.0209,-0.48701 -27.8332,-0.90535 z M 442.10021,862.5892 C 492.12778,832.2614 536.09378,794.03072 571.86738,749.75 l 6.26109,-7.75 46.31332,0 c 35.84426,0 46.54208,-0.28256 47.32532,-1.25 3.15598,-3.8982 12.76607,-40.61681 16.61879,-63.49771 C 697.92615,620.5937 692.168,557.16448 672.20404,499 c -1.88357,-5.48773 -1.89874,-5.50148 -6.79591,-6.16239 C 662.70866,492.47329 653.075,492.13396 644,492.08354 613.8689,491.91613 582.86487,488.78252 569.40238,484.54387 551.23444,478.82372 536.98516,464.43811 498.04129,412.5 454.5778,354.53422 449.60173,348.73652 376.78651,271.22388 339.66444,231.70703 308.57626,198.27816 307.70165,196.93753 306.82705,195.59689 300.21069,167.05 292.99864,133.5 285.78658,99.95 279.53077,72.141765 279.09683,71.703922 c -0.89266,-0.900685 -8.08511,1.755076 -17.34505,6.404541 -18.19577,9.136189 -32.56381,22.787217 -40.07112,38.071437 -5.37264,10.93823 -7.39768,18.28521 -8.62996,31.31007 -1.99391,21.07518 2.92971,43.63518 14.56615,66.74207 1.88551,3.74411 9.45474,17.30737 16.82053,30.14058 15.14607,26.38858 19.73156,35.22233 26.79912,51.62738 14.52712,33.72001 23.09301,66.2333 25.68717,97.5 0.83831,10.10389 1.6153,35.4191 1.19983,39.09167 -0.0852,0.75283 -11.21995,1.29104 -35.8735,1.73398 -43.51986,0.78191 -66.30376,2.42352 -94.25,6.79085 -66.5482,10.39989 -102.630389,31.77793 -110.59821,65.52741 -2.031528,8.60499 -1.347047,26.60291 1.402522,36.87827 7.563054,28.26374 28.904836,51.9711 56.682708,62.96557 12.53006,4.95939 21.89581,6.24628 51.15096,7.02834 l 26.86202,0.71809 60.95245,-27.47445 c 33.52385,-15.11095 61.12778,-28.00041 61.34206,-28.64325 0.60441,-1.81323 -10.48902,-14.76074 -18.28162,-21.3371 -7.78243,-6.56776 -21.81728,-13.94759 -31.01289,-16.30725 -23.64565,-6.06764 -44.35258,-2.83654 -86.44674,13.4891 l -13.44674,5.21514 -15.55326,0.76755 c -8.55429,0.42215 -16.12351,0.55635 -16.82049,0.29822 C 132.34977,539.54474 103,507.78715 103,506.44707 c 0,-1.57839 12.35574,-2.43376 35.2611,-2.44108 l 18.7611,-0.006 12.7389,-4.86375 c 14.74537,-5.62983 26.46261,-9.10632 41.2389,-12.23554 13.72492,-2.90657 38.69336,-3.15281 53,-0.52268 42.86491,7.88027 75.73353,34.4138 98.40935,79.44197 2.01163,3.99455 3.37924,7.71305 3.03914,8.26334 -0.34009,0.55029 -5.08014,3.07141 -10.53342,5.60249 -8.68395,4.03056 -11.94779,6.31417 -9.02451,6.31417 0.48981,0 5.10231,2.7643 10.25,6.14288 12.63602,8.2934 28.42764,24.24872 37.38919,37.77679 7.97931,12.04531 15.57232,26.65076 14.84306,28.5512 -0.27625,0.71988 -5.64814,3.4743 -11.93754,6.12095 C 390.14587,667.23847 385,669.891 385,670.48634 c 0,0.59535 1.40205,1.91066 3.11566,2.92291 5.47504,3.23419 23.55977,21.44672 31.21031,31.43088 10.46732,13.66013 21.14807,31.19047 20.04861,32.90582 -0.48102,0.75046 -9.54854,5.45999 -20.15004,10.46562 l -19.27546,9.10113 11.07147,10.47208 c 10.81249,10.22713 19.42062,20.41131 27.81851,32.91179 6.16363,9.17472 15.27665,26.84031 14.66298,28.42421 -0.2939,0.75857 -18.07709,9.21675 -39.5182,18.79595 C 392.54273,857.49593 375,865.68804 375,866.12142 c 0,0.43337 1.4625,1.04877 3.25,1.36754 10.70759,1.90955 17.17169,2.32521 33.85021,2.17668 l 18.6002,-0.16564 11.3998,-6.9108 z M 347.22739,840.31592 C 377.35233,826.73968 402,815.22739 402,814.73307 c 0,-0.49433 -3.82664,-5.7763 -8.50365,-11.73772 -8.13454,-10.36847 -23.14939,-25.40134 -27.92212,-27.95562 -2.01388,-1.0778 -7.4912,1.12712 -50.61654,20.37585 L 266.59939,817 l -30.83108,0 c -27.6073,0 -30.89665,0.17086 -31.45814,1.63409 -0.34488,0.89874 -0.10333,5.0028 0.53677,9.12013 3.20757,20.63188 17.51674,32.14101 44.96702,36.16779 3.12732,0.45876 14.00087,0.88898 24.16343,0.95605 L 292.45479,865 347.22739,840.31592 z M 323.5,752.19856 c 34.65,-15.56579 63.35938,-28.66018 63.79863,-29.09863 2.19573,-2.19177 -15.29191,-19.19318 -28.8912,-28.08792 -13.42073,-8.77793 -6.30074,-10.49492 -64.69477,15.6012 L 242.5,733.5 187.45494,733.1506 c -50.8422,-0.32273 -55.15278,-0.21961 -56.45588,1.35053 -1.98417,2.39078 -1.72526,13.9637 0.42177,18.85223 2.48203,5.65129 10.25227,13.4538 16.56292,16.6317 17.25449,8.68896 34.71252,10.86002 85.51625,10.63469 l 27,-0.11975 63,-28.30144 z M 296,671.36042 c 33.275,-14.66897 61.12925,-27.24633 61.89834,-27.94969 1.17966,-1.07885 0.73487,-2.07126 -2.84438,-6.34628 -12.43359,-14.85056 -32.01872,-28.23211 -47.09756,-32.17943 l -4.54359,-1.18942 -50.78549,22.76211 -50.7855,22.76212 -32.17091,-0.49108 c -33.27384,-0.50792 -43.41186,-1.47843 -59.88954,-5.73317 -4.24525,-1.09618 -10.263739,-3.11862 -13.37443,-4.49432 -8.426697,-3.72668 -9.026525,-3.52616 -12.709479,4.24874 -2.837159,5.98938 -3.19206,7.70781 -3.149526,15.25 0.04029,7.14522 0.462697,9.30008 2.650196,13.5198 5.241091,10.11015 16.172538,17.6747 31.655619,21.90565 13.57751,3.71024 24.25064,4.36498 73.14625,4.48715 l 47.5,0.11869 60.5,-26.67087 z"
         inkscape:connector-curvature="0" />
      <path
         id="path2259"
         style="fill:#837b60"
         d="M 254,897.96558 C 207.40187,894.98445 180.10607,877.98464 171.36412,846.5 c -1.0995,-3.95991 -1.7226,-10.40429 -1.83258,-18.95322 l -0.16664,-12.95321 -9.53022,-1.68157 c -21.82105,-3.85025 -34.61896,-9.5816 -45.246,-20.26278 -12.57498,-12.63903 -17.664922,-26.84458 -17.700885,-49.40149 -0.01162,-7.28875 0.244032,-14.08772 0.568116,-15.10882 C 98.178072,725.86359 96.932396,724.86107 90.5,722.54083 78.652147,718.26718 69.616411,712.6622 61.453692,704.52306 48.306277,691.41363 43,678.1799 43,658.5 c 0,-13.11488 2.43574,-22.88042 9.056884,-36.31148 l 5.083277,-10.31149 -3.82008,-4.53449 C 36.398854,587.25678 26.115482,565.88283 22.367988,543.00872 20.446296,531.27902 21.015852,510.55269 23.52238,501 c 7.410435,-28.2421 29.521166,-52.64983 63.285239,-69.8597 28.910541,-14.73598 57.809521,-23.14188 96.775761,-28.14935 13.43385,-1.72636 52.36028,-3.9691 69.16662,-3.98503 7.34101,-0.007 7.15415,0.53153 4.72791,-13.62493 C 251.12887,348.33606 234.61517,301.5339 217.92009,273.26852 205.95571,253.01241 191.5485,221.65947 184.49911,200.53786 177.66244,180.05363 175.62618,167.50965 176.29532,150 c 1.57151,-41.12292 15.95526,-70.999298 44.54256,-92.519069 16.33654,-12.297712 35.03694,-20.555302 63.18585,-27.901148 13.82325,-3.60737 17.68847,-4.294017 18.65949,-3.314815 0.6736,0.679268 8.6741,34.310032 17.7789,74.735032 9.10479,40.425 16.88801,74.24716 17.29603,75.16035 0.40802,0.91319 28.8187,31.51319 63.13485,68 34.31615,36.48681 66.74041,71.73965 72.05393,78.33965 5.31351,6.6 23.1153,29.775 39.55952,51.5 52.17427,68.92913 57.26028,74.14658 76.54906,78.52732 6.22908,1.41471 15.25513,1.77246 55.28545,2.19124 l 47.84097,0.50049 3.00714,6.64048 c 5.18219,11.44352 12.33186,30.18119 16.07938,42.14047 23.54834,75.14855 23.58737,148.31966 0.12215,228.96682 -4.51022,15.5011 -13.77607,41.43814 -15.64126,43.78318 -0.77176,0.9703 -12.26686,1.25 -51.3728,1.25 l -50.37857,0 -6.16949,6.75 c -12.38972,13.5555 -41.67174,41.99532 -52.85323,51.33308 C 506.62582,859.75792 478.03326,878.53282 450,891.88085 l -10.5,4.99957 -20,0.91542 c -11,0.50348 -22.475,0.7469 -25.5,0.54092 -19.5995,-1.33453 -41.92105,-4.91826 -60.76431,-9.75571 l -9.26431,-2.37834 -13.18016,6.39865 L 297.61107,899 281.55554,898.85065 C 272.72499,898.7685 260.325,898.37022 254,897.96558 z m 186,-33.73447 c 12.55234,-7.36698 30.9009,-19.619 44.5,-29.71434 35.56841,-26.40432 62.27791,-52.61262 93.2669,-91.51677 0.21905,-0.275 21.62361,-0.725 47.56569,-1 l 47.16741,-0.5 2.75147,-8.20409 C 679.25393,721.36169 685.61025,696.2635 687.98931,683 c 6.65505,-37.1025 6.9957,-79.99092 0.93723,-118 -3.61147,-22.65737 -12.3044,-57.36623 -17.46907,-69.75 l -1.35542,-3.25 -16.08967,0 c -32.79558,0 -71.038,-3.60203 -85.42691,-8.04632 C 553.79945,479.38675 534.56608,460.67153 507.9996,425 452.73288,350.79188 451.77905,349.70112 320.33133,210.39029 l -13.31332,-14.10972 -12.99448,-60.39028 c -7.14696,-33.21466 -13.24762,-61.454719 -13.55702,-62.755687 -0.48937,-2.057747 -0.979,-2.28449 -3.76452,-1.743334 -4.48727,0.871759 -20.4997,8.717751 -27.51724,13.483272 -17.73648,12.04461 -28.80266,27.400059 -34.32217,47.625459 -3.00341,11.00556 -3.25653,35.17472 -0.49223,47 4.44608,19.01965 9.60471,30.31545 30.12437,65.96301 15.28693,26.55705 19.08486,33.9427 27.01614,52.53699 16.81194,39.41433 23.68284,69.03192 25.71147,110.83139 0.9703,19.99277 0.92808,23.46064 -0.295,24.23469 -0.78503,0.49681 -13.41491,0.91019 -28.0664,0.91861 -123.26627,0.0709 -194.559787,22.38588 -209.844539,65.6818 -5.96124,16.88594 -3.679509,41.93011 5.515231,60.53492 10.095854,20.42814 29.414091,38.2871 50.468378,46.65606 13.81725,5.49228 19.89292,6.30874 51.02113,6.8563 l 28.52112,0.50169 60.47888,-27.2049 c 33.26338,-14.96269 60.88589,-27.59069 61.38337,-28.06222 1.14287,-1.08328 -5.20345,-9.54949 -12.97736,-17.31224 -13.02812,-13.00941 -28.65631,-20.77599 -47.73716,-23.72344 -18.66043,-2.8825 -39.77514,1.56578 -77.86078,16.40308 l -11.67079,4.54668 -16.20609,0.31879 -16.20608,0.31879 -15.50588,-16.31725 c -8.60146,-9.05156 -15.1128,-16.68466 -14.62311,-17.14237 0.48551,-0.45383 13.03275,-1.04511 27.88275,-1.31397 l 27,-0.48883 7.4638,-3.15024 c 10.84056,-4.57546 30.20676,-10.59347 42.68771,-13.26513 14.39657,-3.08171 45.05104,-3.33884 58.11667,-0.48749 36.83081,8.0377 64.85057,28.22641 85.7002,61.74846 7.20732,11.58793 12.77877,22.83037 12.13959,24.49605 -0.28839,0.75153 -4.81816,3.37293 -10.06616,5.82534 -5.24799,2.4524 -9.54181,4.89687 -9.54181,5.43215 0,0.53528 2.1375,2.21687 4.75,3.73687 14.17642,8.24809 28.97161,21.8308 40.11277,36.8255 7.28518,9.805 17.16386,27.47757 17.43256,31.18616 0.1958,2.70249 -0.30456,3.03975 -11.54533,7.78209 -6.4625,2.72644 -11.75,5.27988 -11.75,5.6743 0,0.39443 4.10983,3.99894 9.13296,8.01003 5.02313,4.01109 12.71648,11.42415 17.09634,16.47347 15.02637,17.32315 30.02797,40.27684 28.19634,43.14273 -0.5091,0.79658 -9.02203,5.26607 -18.91761,9.9322 -9.89558,4.66613 -18.43667,8.92857 -18.9802,9.4721 -0.65097,0.65097 1.22331,2.92851 5.49197,6.67364 8.7422,7.66998 15.83517,15.16673 23.42091,24.75419 10.06671,12.7231 24.05571,36.78121 23.36634,40.18515 -0.18768,0.92671 -15.42765,8.27144 -39.20041,18.89219 -21.39135,9.55683 -39.15332,17.63601 -39.47104,17.95373 -1.16075,1.16075 2.41664,2.33922 10.2986,3.39258 10.87276,1.45306 15.6485,1.63621 32.0658,1.22968 l 14,-0.34666 9.5,-5.57556 z m -94.09137,-22.8111 c 30.02525,-13.519 55.17241,-25.14111 55.88256,-25.82691 1.04633,-1.01045 -0.2016,-3.12867 -6.58074,-11.17 C 382.24287,788.0766 367.63541,774 363.64002,774 c -1.03109,0 -23.0844,9.5625 -49.00736,21.25 L 267.5,816.5 l -31.89012,0.29039 -31.89013,0.29038 0.54551,7.95886 c 0.98896,14.42859 8.34632,25.70671 20.90594,32.04679 12.11856,6.11743 26.46294,8.52799 52.23743,8.77843 L 291.31726,866 345.90863,841.42001 z M 323.75,752.38096 C 364.35546,734.28192 388,723.22953 388,722.34797 c 0,-2.03818 -15.37111,-17.71483 -22.96833,-23.42489 -3.59242,-2.70005 -9.48179,-6.46594 -13.08749,-8.36863 l -6.55583,-3.45943 -51.86532,22.95249 L 241.65771,733 l -55.26984,0 c -36.69142,0 -55.48292,0.34478 -55.90376,1.02571 -0.34866,0.56414 -0.88004,3.41038 -1.18086,6.32498 -1.776,17.20781 12.01745,30.89888 36.89471,36.62084 13.69932,3.15096 22.734,3.74042 59.80204,3.90174 l 33.5,0.1458 64.25,-28.63811 z M 297,671.60037 c 33.275,-14.7948 60.8822,-27.237 61.34934,-27.64934 1.6539,-1.45989 -0.50369,-4.81928 -8.13096,-12.66002 -12.59312,-12.94559 -25.30856,-21.26826 -40.11376,-26.25576 l -6.17367,-2.07977 -51.64068,23.16758 -51.64067,23.16758 -29.5748,-0.60501 C 131.79011,647.88198 115.03475,645.47608 96.174442,637.93071 92.145385,636.31882 88.461083,635 87.987104,635 c -0.473979,0 -2.352477,3.02682 -4.174442,6.72628 -2.764042,5.61231 -3.37066,8.08678 -3.662865,14.94125 -0.307034,7.20231 -0.023,8.93101 2.304141,14.02372 5.791048,12.67309 18.205462,20.47993 39.420932,24.78998 13.21496,2.68469 26.621,3.26819 72.12513,3.13922 L 236.5,698.5 297,671.60037 z"
         inkscape:connector-curvature="0" />
      <path
         id="path2257"
         style="fill:#646055"
         d="m 249,897.33242 c -18.48411,-1.83525 -38.19504,-7.26547 -48.659,-13.4052 -8.48403,-4.97802 -19.42163,-16.15712 -23.2699,-23.78369 -5.11383,-10.13471 -7.1635,-19.77794 -7.19052,-33.82976 l -0.0234,-12.18624 -2.67857,-0.51084 c -1.47321,-0.28097 -5.15357,-0.81227 -8.17857,-1.18067 -7.74866,-0.94369 -21.06929,-4.93741 -27.799,-8.33455 -12.37245,-6.2456 -21.73451,-15.39472 -27.22057,-26.60147 -5.38196,-10.99409 -6.354438,-16.33972 -6.427653,-35.33231 l -0.06682,-17.33232 -8.492981,-3.29226 C 65.526057,712.44628 51.029858,697.6356 45.395653,677 c -1.23673,-4.5296 -1.791732,-10.28924 -1.830851,-19 -0.06611,-14.72216 1.066242,-19.33773 8.634305,-35.1941 4.918633,-10.30536 5.043444,-10.77791 3.433563,-13 -0.918835,-1.26824 -4.793647,-6.3492 -8.610694,-11.291 C 35.311067,583.35317 27.254277,565.78808 23.393016,547 c -2.45318,-11.93666 -2.482989,-32.98427 -0.06134,-43.31053 7.899728,-33.68556 35.057344,-61.14936 78.689204,-79.57637 36.23535,-15.30326 76.22064,-22.64483 129.72303,-23.81803 17.66925,-0.38745 26.55101,-0.9455 27.18382,-1.70799 2.25274,-2.71438 -5.7812,-39.16814 -14.26875,-64.74406 C 236.48354,309.20763 228.46537,291.44065 212.91345,263.5 199.48097,239.36716 186.65719,208.91936 181.10593,187.97867 175.53285,166.95567 174.896,151.68199 178.64677,129 c 7.33589,-44.362297 35.91764,-76.145482 83.421,-92.764951 12.49398,-4.371129 39.73528,-10.852922 40.7622,-9.698955 C 303.30176,27.066242 311.23459,61.025 320.4585,102 l 16.77074,74.5 3.58997,4 c 1.97449,2.2 30.46214,32.59578 63.30589,67.54618 32.84376,34.9504 63.4945,68.2504 68.11276,74 4.61826,5.7496 20.65808,26.65382 35.64406,46.45382 56.12706,74.15708 61.48316,79.80737 79.83769,84.22289 5.58631,1.34389 15.32158,1.73205 55.28039,2.20413 l 48.5,0.57298 3.23619,6.5 c 4.26145,8.55928 10.52167,24.62802 15.38879,39.5 19.36276,59.16492 23.2778,121.39124 11.73384,186.5 -4.30585,24.28528 -15.05483,61.83595 -23.61585,82.5 l -2.90006,7 -51.0558,0.25902 -51.0558,0.25902 -12.8349,14.13496 c -36.62252,40.33206 -81.75066,75.03672 -126.98926,97.65793 l -12.09285,6.04693 -13.35705,1.07107 c -32.19592,2.58171 -56.34376,0.44872 -91.477,-8.0802 L 323.4605,885.68806 311.38596,891.84403 299.31142,898 275.90571,897.83996 C 263.03257,897.75194 250.925,897.52355 249,897.33242 z m 178,-27.2044 c 4.49419,-0.57462 7.99144,-2.23218 19.12378,-9.06396 16.70453,-10.25136 40.68681,-27.29619 57.08871,-40.57443 15.56925,-12.60417 51.70058,-48.58678 63.24997,-62.98963 4.85139,-6.05 9.90709,-12.0125 11.23489,-13.25 l 2.41418,-2.25 46.39728,0 46.39729,0 3.07192,-9.58991 c 4.27527,-13.34652 9.55502,-33.94666 11.89476,-46.41009 4.46093,-23.76276 5.50581,-35.63164 5.54619,-63 0.0453,-30.71582 -1.69645,-48.60639 -7.4815,-76.84634 -3.85895,-18.83761 -13.00474,-50.47627 -15.28205,-52.86624 -0.81133,-0.85147 -10.2384,-1.51759 -31.65542,-2.23679 -48.5999,-1.63202 -69.57315,-4.87 -81.14457,-12.5276 -14.08522,-9.32116 -28.00166,-25.05628 -61.25301,-69.25791 -42.34021,-56.28362 -46.92984,-61.62517 -117.43051,-136.66926 -36.11955,-38.44728 -67.09067,-71.5427 -68.8247,-73.5454 -3.02468,-3.4933 -3.66719,-6.03682 -15.81191,-62.59586 C 278.74731,62.928579 280.51662,69.657911 277.18655,70.470982 272.71233,71.56341 254.86691,80.478955 248.87355,84.616114 223.87423,101.87291 212,125.00751 212,156.45698 c 0,14.00758 1.89947,25.18773 6.54853,38.54414 4.53952,13.04168 8.48955,20.873 24.95659,49.47882 15.20795,26.41856 19.9692,35.68609 28.01003,54.52006 11.22716,26.2973 19.27695,54.13527 22.98866,79.5 1.51544,10.35605 3.83567,52.14169 2.9728,53.53785 -0.21894,0.35424 -15.37824,0.95254 -33.68734,1.32956 C 229.14324,434.08082 211.81584,435.04159 189,437.51432 110.63452,446.0074 67.191319,468.03836 56.909896,504.5 c -2.203389,7.81401 -1.685641,29.04752 0.950959,39 7.267745,27.43386 28.722346,51.88132 55.374455,63.09904 13.28009,5.58952 19.22752,6.46801 50.54804,7.46644 25.44579,0.81116 29.77041,0.73318 33,-0.595 2.04416,-0.84068 29.92915,-13.32576 61.96665,-27.74463 39.61746,-17.83033 58.24901,-26.69749 58.24689,-27.72099 -0.005,-2.32281 -11.74633,-15.77845 -19.31642,-22.13635 -8.185,-6.87434 -19.58135,-12.972 -29.70784,-15.89529 -10.63657,-3.07054 -29.50156,-3.7612 -41.47263,-1.51835 -10.41809,1.9519 -31.43099,8.62974 -47.69153,15.15624 -11.13286,4.4684 -11.55448,4.55221 -27.15032,5.39726 -8.71302,0.4721 -16.38983,0.64809 -17.05958,0.39108 -0.66975,-0.25701 -5.93506,-5.51452 -11.70068,-11.68337 -19.52769,-20.89338 -19.42616,-20.76948 -17.84118,-21.77229 0.79381,-0.50224 12.7095,-0.92006 26.47932,-0.92848 L 156.57206,505 l 14.96397,-5.64104 c 42.30236,-15.94691 76.02936,-18.3047 109.89005,-7.68222 10.63123,3.33514 25.97153,11.25881 35.44918,18.31043 15.89724,11.82798 33.22014,33.29604 43.69229,54.14732 2.43785,4.85405 4.43245,9.08136 4.43245,9.39401 0,0.31266 -4.725,2.77483 -10.5,5.4715 -5.775,2.69667 -10.5,5.36329 -10.5,5.92584 0,0.56254 1.4625,1.77558 3.25,2.69565 20.55531,10.58029 42.32787,33.9692 55.87686,60.02504 4.14704,7.97509 4.78541,9.8676 3.69337,10.94924 -0.72613,0.71922 -5.82023,3.16546 -11.32023,5.43611 -13.5873,5.60944 -13.84958,5.94572 -7.84849,10.06303 12.16446,8.34593 30.7691,29.10717 42.48084,47.40509 7.23928,11.31034 9.33378,15.44093 8.3075,16.38334 -0.51692,0.47467 -9.39859,4.82245 -19.73706,9.66172 -10.33846,4.83928 -19.07821,9.25336 -19.42166,9.80907 -0.34344,0.55571 0.9153,2.16087 2.79721,3.56703 15.69968,11.7307 33.53374,33.89899 45.57728,56.65397 4.72435,8.92616 5.38881,10.79587 4.22517,11.88914 -0.75943,0.7135 -18.81829,9.06175 -40.13079,18.55167 -21.3125,9.48991 -38.75,17.65769 -38.75,18.15061 0,1.30845 1.4729,1.70575 12,3.23684 10.18789,1.48176 33.00004,1.87534 42,0.72463 z M 347.27235,841.25 c 30.23185,-13.6125 55.18012,-25.2964 55.44059,-25.96422 1.26106,-3.23326 -28.86788,-36.81964 -36.87214,-41.10339 -2.28213,-1.22136 -5.95987,0.24587 -50.75976,20.25042 L 266.78167,816 l -30.76839,0 c -26.1215,0 -30.95629,0.22641 -32.01253,1.4991 -1.93675,2.33364 0.37873,15.68632 4.00984,23.12348 5.55479,11.37721 17.93289,19.54817 34.50534,22.77745 10.95763,2.13519 12.58568,2.25784 32.38674,2.43993 L 292.30534,866 347.27235,841.25 z m -23.72974,-88.31004 c 34.62657,-15.43302 63.54462,-28.63632 64.26235,-29.34067 1.0696,-1.04967 0.6031,-2.16856 -2.58659,-6.20381 -5.34017,-6.75582 -17.18961,-17.15217 -26.31094,-23.08442 -13.90788,-9.0453 -6.42955,-10.81829 -66.39886,15.7421 l -52.54668,23.27291 -53.73094,-0.63397 c -29.55202,-0.34869 -54.24688,-0.30956 -54.87746,0.087 -3.72807,2.34426 -3.53109,14.82093 0.36382,23.04477 5.60946,11.84398 23.86788,21.03068 47.78269,24.0418 3.85,0.48476 23.66918,0.9383 44.04261,1.00787 L 260.58522,781 323.54261,752.93996 z M 297.5,671.57353 c 38.61264,-17.08021 62.11799,-27.99868 62.3128,-28.94491 0.48972,-2.37869 -19.3693,-21.80561 -28.02238,-27.41266 -7.69396,-4.98555 -20.16518,-10.74091 -25.65238,-11.83835 -2.33037,-0.46608 -12.76972,3.86423 -53.26821,22.09599 L 202.5,648.14927 l -34,-0.4849 c -38.54939,-0.54978 -48.90428,-1.83038 -66.98024,-8.2835 -14.47716,-5.16835 -14.287314,-5.19909 -18.476907,2.99123 -3.162202,6.18185 -3.516671,7.6885 -3.52907,15 -0.01132,6.67635 0.448114,9.11014 2.572595,13.6279 5.089885,10.82378 15.887614,18.53721 32.211782,23.01072 15.1446,4.15025 24.67353,4.77768 74.20184,4.88578 l 47,0.10258 62,-27.42555 z"
         inkscape:connector-curvature="0" />
      <path
         id="path2255"
         style="fill:#020202"
         d="M 244,895.89339 C 210.56797,892.11717 187.06837,878.92796 177.37511,858.5 172.31818,847.84283 170.73513,840.23782 170.60992,826 L 170.5,813.5 l -5,-0.80207 c -36.84372,-5.91024 -55.85201,-18.97217 -64.20461,-44.11952 -2.479554,-7.46524 -2.694059,-9.44054 -2.826047,-26.02414 -0.114042,-14.32889 -0.427661,-18.09878 -1.556086,-18.70514 -0.777291,-0.41768 -5.290615,-2.29063 -10.029608,-4.16211 C 65.957565,711.42308 52.312207,697.2137 46.371198,677.5 c -1.33355,-4.42504 -1.816457,-9.41241 -1.839693,-19 -0.03657,-15.08929 1.654301,-21.93657 9.056682,-36.67559 C 56.014684,616.99296 58,612.52958 58,611.90577 c 0,-0.62381 -2.185596,-3.6703 -4.856879,-6.76998 C 24.580939,571.99303 14.363806,525.46632 28.096703,491.07959 44.291605,450.52807 93.403492,419.92787 162,407.6483 c 23.57143,-4.21956 39.94645,-5.73941 67.5,-6.26502 28.27669,-0.53941 30.02183,-0.6948 30.80782,-2.74305 0.29063,-0.75737 -0.58018,-7.39876 -1.93512,-14.75863 -7.91421,-42.989 -21.12329,-79.05423 -43.16053,-117.84277 C 198.78163,237.11885 183.5216,199.09358 178.87778,175.5 c -1.90991,-9.70354 -1.64185,-34.50099 0.50004,-46.25844 7.98946,-43.856478 34.13638,-73.926199 78.7789,-90.598069 C 267.60679,35.114339 297.32289,27 300.79719,27 c 1.50745,0 4.14635,10.603293 18.70687,75.16567 l 16.95184,75.16567 63.52205,67.61212 c 34.93713,37.18666 67.82086,72.99961 73.07496,79.58433 5.2541,6.58472 22.32883,28.84721 37.94386,49.47221 41.21746,54.44182 51.75597,67.06605 60.86544,72.91158 12.4304,7.97656 21.73137,9.082 76.44468,9.0856 l 42.8069,0.003 3.55583,7.75 c 10.38921,22.64349 19.79218,51.90424 25.39555,79.02742 14.53651,70.36422 7.41077,148.12666 -20.2423,220.90203 L 694.76135,777 l -50.40184,0 -50.40184,0 -25.72883,25.8262 c -30.28347,30.39807 -46.63494,44.14269 -74.72884,62.81511 -14.83918,9.86276 -25.54013,16.04301 -40.80894,23.56886 -11.53277,5.6844 -12.08235,5.84318 -23.5,6.78935 -32.14584,2.66389 -57.04532,0.49177 -93.43167,-8.15058 l -12.7406,-3.0261 -11.59213,6.08858 L 299.83453,897 275.66726,896.87026 C 262.37527,896.79891 248.125,896.35932 244,895.89339 z M 442.41153,864.374 c 51.40479,-31.24934 95.32496,-69.12796 128.55815,-110.874 3.50275,-4.4 6.76468,-8.45 7.24873,-9 0.55135,-0.62646 18.51147,-1.18677 48.08085,-1.5 l 47.20074,-0.5 3.29364,-9.80722 c 6.96462,-20.73804 12.99479,-48.43825 16.36902,-75.19278 1.91502,-15.18444 1.61717,-57.82251 -0.52741,-75.5 -3.43326,-28.2998 -9.42647,-55.61465 -17.44325,-79.5 L 671.5,491.5 652,490.77774 C 591.15339,488.52406 571.03899,485.6854 557.97567,477.50848 551.76589,473.62151 536.49419,458.53489 526.08064,446 521.28297,440.225 507.92392,422.9 496.39386,407.5 456.42754,354.11942 448.96187,345.41981 380.542,272.5 345.44999,235.1 314.8055,202.475 312.44314,200 l -4.29522,-4.5 -13.30405,-61.87353 c -7.31722,-34.030447 -13.801,-62.553157 -14.40838,-63.383804 -0.97286,-1.330466 -1.80859,-1.247654 -7.01991,0.695588 -9.90836,3.694719 -22.99346,11.081129 -31.38451,17.716255 -16.43458,12.995441 -26.67064,30.614351 -30.08594,51.785711 -1.86367,11.5528 -0.70641,32.83033 2.39636,44.05978 5.16422,18.69017 8.52657,25.85314 28.23009,60.13991 15.38591,26.77356 20.00883,35.76846 27.92855,54.34117 11.33084,26.57217 19.62242,55.17054 22.9666,79.21373 1.37196,9.86378 1.82049,16.03253 3.04732,41.91029 l 0.55018,11.60511 -33.28212,0.70966 c -82.75205,1.76449 -129.93271,9.38165 -165.30106,26.6873 -31.609783,15.46658 -45.813909,36.84771 -44.106757,66.39283 0.969107,16.77202 6.727539,34.06696 15.670597,47.06524 13.053562,18.97271 34.04093,33.58458 56.816,39.55657 10.88909,2.85529 64.43403,4.54423 70.25297,2.21596 2.08155,-0.83288 30.01998,-13.33803 62.08539,-27.78923 38.68287,-17.43354 58.40854,-26.82048 58.6211,-27.89626 0.69486,-3.5169 -15.71606,-21.44289 -26.1457,-28.55949 -6.41069,-4.3743 -17.65571,-9.44584 -25.67465,-11.57936 -9.78322,-2.60292 -28.5326,-3.10126 -39.5,-1.04987 -10.6473,1.99151 -29.13032,7.85809 -46.5,14.75926 -12.48337,4.95979 -12.52116,4.96755 -28.41141,5.83115 -8.75127,0.47562 -16.44031,0.54554 -17.08674,0.15539 -2.43322,-1.46853 -29.26255,-30.74182 -28.8329,-31.45936 0.247,-0.4125 11.80124,-0.75 25.6761,-0.75 l 25.22701,0 14.96397,-5.63547 C 200.2705,489.54304 223.41853,485.19554 246,486.37921 c 43.18734,2.26378 77.65798,22.01229 102.15469,58.52526 9.25626,13.79671 16.2,27.57013 14.55899,28.87885 -0.66752,0.53236 -5.39493,2.89787 -10.50534,5.2567 -6.34297,2.92773 -9.19911,4.7634 -9,5.78437 0.16041,0.82259 3.37914,3.33611 7.15272,5.58561 15.95187,9.50919 30.81355,24.02583 42.35519,41.37185 7.09367,10.66113 14.63587,25.26649 13.58781,26.31257 -0.44223,0.4414 -5.9431,2.96786 -12.22416,5.61436 -6.28105,2.6465 -11.58843,5.31681 -11.79417,5.93402 -0.20574,0.61722 3.39088,4.0621 7.99249,7.6553 14.52635,11.343 28.3997,27.61393 41.56785,48.75156 5.23091,8.3967 6.10953,10.40228 5,11.41315 -0.74034,0.6745 -9.78357,5.18902 -20.09607,10.03226 -10.3125,4.84323 -18.75,9.32587 -18.75,9.96142 0,0.63554 3.98814,4.60231 8.86254,8.81505 10.51496,9.08762 20.51561,20.62037 29.38244,33.88379 7.88904,11.80082 16.25896,27.76924 15.10418,28.81631 -0.46704,0.42347 -17.06945,7.99141 -36.89425,16.81762 C 369.99586,865.58291 371,865.1017 371,866.61431 c 0,2.98075 20.66388,5.36335 42.41153,4.89017 l 17.91153,-0.38972 11.08847,-6.74076 z M 348.15716,841.83127 C 385.76841,824.87963 404,816.17517 404,815.16975 c 0,-1.66419 -9.91465,-14.96437 -16.89921,-22.66975 -5.87123,-6.47715 -19.01696,-18.41745 -21.6532,-19.66765 -1.67302,-0.79341 -10.98164,3.01387 -50.35916,20.59717 L 266.78167,815 l -30.8194,0 c -35.89388,0 -34.49064,-0.37265 -33.42908,8.87746 2.42152,21.10044 12.37736,32.53006 33.99203,39.02391 9.7894,2.94109 18.34514,3.82653 38.38194,3.97213 L 292.31432,867 348.15716,841.83127 z m -23.6523,-88.32953 c 35.14041,-15.67404 64.3095,-28.9161 64.8202,-29.4268 3.51588,-3.51588 -22.961,-28.01366 -38.52874,-35.64879 l -5.55916,-2.72647 -52.62213,23.30633 -52.62213,23.30633 -53.91949,-0.57269 c -40.30185,-0.42805 -54.30769,-0.27807 -55.45656,0.59383 -2.34839,1.78225 -3.63748,9.28478 -2.56604,14.93443 2.13364,11.25065 8.41461,18.90609 20.2743,24.71093 16.96209,8.30227 28.27891,9.78436 75.73149,9.91812 L 260.6132,782 324.50486,753.50174 z M 297.5,672.571 c 34.1,-15.08544 62.42334,-28.09662 62.94077,-28.91374 1.8966,-2.99513 -13.95788,-19.46361 -27.49487,-28.55966 -8.27249,-5.55863 -20.85262,-11.52894 -26.79854,-12.71813 -2.31649,-0.4633 -12.91253,3.92107 -53.46428,22.12213 l -50.57521,22.69995 -33.30393,-0.46534 c -24.81985,-0.3468 -35.72404,-0.88877 -42.80394,-2.1275 -11.95625,-2.09191 -22.44456,-4.92867 -30.035522,-8.12366 -8.491059,-3.57384 -9.211536,-3.38867 -12.703875,3.26495 -6.04419,11.51542 -6.562709,21.67616 -1.648649,32.30641 5.130475,11.09841 16.907355,18.96483 35.195656,23.50911 14.9988,3.72691 22.32227,4.16344 72.19239,4.30322 l 46.5,0.13034 62,-27.42808 z"
         inkscape:connector-curvature="0" />
    </g>
    <g
       style="font-size:147.72496033px;font-style:normal;font-variant:normal;font-weight:normal;font-stretch:normal;text-align:start;line-height:125%;letter-spacing:0px;word-spacing:0px;writing-mode:lr-tb;text-anchor:start;fill:#000000;fill-opacity:1;stroke:none;font-family:Bitstream Charter;-inkscape-font-specification:Bitstream Charter"
       id="text3834"
       inkscape:export-filename="../../../tmp/buatan-indonesia.html"
       inkscape:export-xdpi="27.530001"
       inkscape:export-ydpi="27.530001">
      <path
         d="m -225.47725,153.79426 4.79929,3.44718 5.63212,-6.32192 3.14481,-0.83319 66.11028,47.48487 0.21471,3.24621 -4.31232,7.26989 4.91928,3.53336 22.75137,-31.67535 c 14.65049,-20.39698 14.09405,-37.34797 -1.02372,-48.20656 -11.75826,-8.44558 -24.85123,-5.6637 -35.22655,8.52801 5.15368,-13.75896 3.25737,-24.03327 -5.86129,-30.5829 -13.19804,-9.47973 -25.98679,-4.84239 -39.17223,13.5149 l -21.97575,30.5955 m 50.60806,6.52144 -30.83547,-22.14811 c 2.03451,-3.08574 3.43195,-5.53777 4.55228,-7.09754 9.47973,-13.19805 19.05272,-16.14374 28.77128,-9.16322 11.63828,8.3594 11.67913,18.93794 0.90671,33.93572 -1.03415,1.43979 -2.15448,2.99956 -3.3948,4.47315 m 38.03442,27.31888 -32.0353,-23.00991 c 2.88107,-5.02402 5.48503,-9.15581 7.72569,-12.27535 9.56591,-13.31803 19.37886,-16.09137 30.29725,-8.24905 12.1182,8.70412 11.69436,19.67641 0.14632,35.75403 -1.80976,2.51963 -3.8257,5.07306 -6.13396,7.78028"
         style=""
         id="path3925" />
      <path
         d="m -158.94884,65.606592 3.91121,4.429302 6.89843,-4.909077 3.25138,-0.112008 36.27646,41.081771 c 7.23572,8.1942 13.167314,13.7956 22.081544,15.1866 8.705717,1.37805 19.83335,-2.53572 30.352931,-11.82483 10.51958,-9.28911 15.780392,-19.846841 15.490339,-28.656177 -0.2771,-9.017849 -5.199136,-15.707789 -12.337084,-23.791256 l -35.591996,-40.306644 0.233142,-3.753229 5.763931,-6.8634056 -3.911209,-4.4293015 -23.364568,20.6316241 3.91121,4.429301 7.523975,-4.870219 3.863962,0.135361 34.711974,39.310051 c 13.298095,15.05961 13.700155,27.120358 -0.252131,39.440655 -14.173751,12.51585 -25.981291,10.52649 -39.279385,-4.533121 l -35.396435,-40.085179 0.62426,-3.310299 6.27874,-6.726768 -3.91121,-4.429301 -27.12947,23.95615"
         style=""
         id="path3927" />
      <path
         d="m -29.167665,-33.513548 13.279194,97.828232 -6.710821,5.61416 2.864524,5.336516 25.5111496,-13.69382 -2.8645234,-5.336516 -8.8096625,3.890523 -2.2797192,-1.12356 -4.1032035,-29.820872 30.717507,-16.488476 22.71593,19.829972 0.06702,2.31129 -7.720521,4.982513 2.864524,5.336516 29.546076,-15.859679 -2.864523,-5.336516 -8.647933,2.630079 -74.974526,-64.711546 -8.590489,4.611184 m 9.418518,12.548824 32.759369,28.8577813 -26.292103,14.1130177 -6.467266,-42.970799"
         style=""
         id="path3929" />
      <path
         d="m 39.744998,-65.64732 6.289967,21.862814 7.808148,-2.246417 -1.810959,-13.774683 1.37487,-2.70131 21.862813,-6.289967 23.076827,80.210971 -1.983578,2.72272 -9.307524,3.446376 1.674602,5.820619 37.053206,-10.660269 -1.6746,-5.8206193 -9.71596,2.0267125 -3.12721,-1.2523375 -23.076828,-80.2109717 21.862818,-6.289967 2.60018,1.55768 5.78602,12.631053 7.80815,-2.246417 -6.28997,-21.862814 -80.210972,23.076827"
         style=""
         id="path3931" />
      <path
         d="m 185.07147,-97.447715 -28.22514,94.6046596 -8.42831,2.34891938 0.4102,6.04281642 28.88761,-1.9609808 -0.4102,-6.0428164 -9.6301,-0.086604 -1.61393,-1.9633507 8.55343,-28.861036 34.78304,-2.361181 12.52274,27.4303206 -0.89164,2.1334357 -9.08789,1.3572391 0.41021,6.0428163 33.45657,-2.2711358 -0.41021,-6.0428164 -8.9632,-1.1683289 -41.63572,-89.8622886 -9.72746,0.660331 m 3.4087,15.315425 17.95212,39.795342 -29.77193,2.02101 11.81981,-41.816352"
         style=""
         id="path3933" />
      <path
         d="m 248.84999,-0.85431782 30.7409,5.15401672 1.00149,-5.9733502 -8.54607,-2.631129 -2.15834,-3.207817 12.21331,-72.8457347 41.63413,92.059297 9.61563,1.612156 14.75368,-87.997647 3.06213,-2.182767 8.96133,0.154374 0.97706,-5.827659 -30.59521,-5.12959 -0.97706,5.827659 8.52165,2.77682 2.18276,3.062126 -11.48051,68.4749902 -37.17436,-82.9235092 0.61067,-3.642287 -27.39,-4.592204 -0.97707,5.827658 9.1777,2.437453 2.28047,2.47936 -13.26365,79.1104672 -3.08655,2.3284588 -9.0826,-0.324492 -1.00149,5.97335018"
         style=""
         id="path3935" />
      <path
         d="m 428.38662,51.906004 32.12967,19.092704 3.09407,-5.206784 -7.75034,-5.464749 -1.10239,-3.060835 41.58134,-69.974099 3.21542,-0.495017 8.58046,4.0678061 3.01861,-5.0797891 -32.12967,-19.092704 -3.01861,5.079789 7.67487,5.591744 1.1024,3.060835 -41.58134,69.974099 -3.21543,0.495017 -8.50499,-4.194801 -3.09407,5.206784"
         style=""
         id="path3937" />
      <path
         d="m 470.03232,74.557642 23.54824,20.42174 3.9682,-4.575723 -5.92189,-6.699954 -0.16993,-3.862596 48.39275,-55.801502 -12.45342,100.265783 7.3658,6.38784 58.45844,-67.408212 3.75099,-0.266715 7.56725,4.802703 3.87142,-4.464121 -23.43663,-20.324955 -3.87142,4.46412 5.82511,6.811557 0.26672,3.750994 -45.48919,52.453409 11.49755,-90.144592 2.41964,-2.790075 -20.98136,-18.19567393 -3.87142,4.46412013 6.56188,6.8638898 0.65385,3.304581 -52.55452,60.600432 -3.84778,0.378318 -7.58207,-5.011092 -3.96821,4.575724"
         style=""
         id="path3939" />
      <path
         d="m 651.45985,118.1192 -20.97284,-29.858311 -4.83536,3.396411 4.11459,7.399842 -0.2489,3.243768 -66.60701,46.78557 -3.13585,-0.86628 -5.4443,-6.46583 -4.95624,3.48132 20.97284,29.85831 c 8.49102,12.08838 16.27394,20.34155 28.21291,24.23123 14.45743,4.64803 29.3508,1.94938 43.73596,-8.15494 25.38559,-17.83114 29.28792,-44.40164 9.1642,-73.05109 m -12.60821,-6.12749 6.70791,9.54983 c 15.53857,22.12172 11.73249,40.86199 -11.83984,57.41948 -23.45144,16.47258 -42.61335,13.8653 -58.15191,-8.25643 l -6.70792,-9.54982 69.99176,-49.16306"
         style=""
         id="path3941" />
      <path
         d="m 720.22729,239.40763 c -4.55598,-11.8593 -12.66622,-20.61245 -23.84295,-25.81374 -12.51285,-5.79575 -26.77798,-5.85432 -41.80895,-0.0799 -15.03098,5.77445 -25.72563,15.4218 -31.22455,28.29538 -4.6497,10.96482 -4.70747,23.17237 -0.20446,34.89378 6.14528,15.99627 19.44111,26.71354 35.64609,29.35013 9.79934,1.61592 19.80129,0.46375 30.00581,-3.45652 15.03098,-5.77445 25.53476,-15.50672 30.94875,-28.18943 4.81955,-11.34657 5.03625,-23.14042 0.48026,-34.99973 m -7.44655,2.86074 c 6.83398,17.78896 -3.89581,35.99538 -29.545,45.84902 -25.6492,9.85364 -45.94674,3.56698 -52.78071,-14.22198 -6.88696,-17.92685 3.98073,-36.18625 29.62992,-46.03989 25.925,-9.9596 45.80884,-3.514 52.69579,14.41285"
         style=""
         id="path3943" />
      <path
         d="m 645.14904,330.93588 3.70095,30.94947 6.01388,-0.71914 0.12104,-8.94112 2.47119,-2.9735 73.33998,-8.77002 -76.63146,65.84781 1.15764,9.68088 88.5947,-10.59419 2.95596,2.32452 2.37252,8.64294 5.8672,-0.7016 -3.68341,-30.80279 -5.8672,0.7016 -0.26771,8.95866 -2.32452,2.95596 -68.93958,8.24381 69.11898,-58.99836 3.667,-0.4385 -3.29752,-27.57584 -5.8672,0.70161 0.24248,9.49275 -1.7378,2.8858 -79.64722,9.52424 -3.10264,-2.30698 -2.24338,-8.80715 -6.01388,0.71914"
         style=""
         id="path3945" />
      <path
         d="m 655.54576,436.49874 -7.86423,75.6708 23.95018,2.48907 0.79405,-7.64055 -14.58069,-4.04018 -2.13716,-2.30139 4.09246,-39.3782 41.1414,4.27569 -2.50433,24.09711 -2.41779,1.82802 -10.73192,0.36987 -0.71771,6.90588 32.32539,3.35948 0.71771,-6.90588 -10.57345,-2.58408 -1.84329,-2.27085 2.50434,-24.09711 37.1742,3.8634 -3.52745,33.94166 -2.41779,1.82801 -12.70314,0.75909 -0.85514,8.22829 21.4523,2.22947 7.3145,-70.38119 -5.87734,-0.61082 -1.75201,8.2836 -2.31667,2.28408 -80.96041,-8.41396 -1.79747,-2.71166 0.13574,-8.45156 -6.02428,-0.62609"
         style=""
         id="path3947" />
      <path
         d="m 647.25987,525.88547 c -4.83229,5.61735 -9.23481,13.84213 -12.38091,24.00237 -6.99132,22.57832 0.39533,40.17545 17.04684,45.33155 6.20904,1.92261 12.08573,1.42263 17.44522,-1.40251 8.36016,-4.52496 12.97758,-11.44603 18.16947,-17.72526 9.52347,-11.2784 15.14875,-16.95951 24.60343,-14.0319 10.30135,3.18979 14.84638,12.48405 11.13224,24.47878 -1.52935,4.93901 -3.82803,8.86659 -6.89603,11.78271 l -3.05438,1.37389 -14.06133,-2.03438 -2.27218,7.33796 21.87277,6.77285 c 5.25922,-7.49554 8.97623,-15.00471 11.37949,-22.76601 6.2048,-20.03826 -1.05435,-36.04945 -17.00028,-40.98707 -13.68811,-4.23849 -21.44373,2.32942 -33.06746,15.89574 -11.39521,13.32778 -16.46966,20.72591 -28.18216,17.09917 -9.87801,-3.0587 -14.57418,-12.8637 -10.33569,-26.55181 1.9663,-6.35015 4.75567,-11.36295 8.13956,-14.79983 l 2.96699,-1.09167 16.75254,3.33164 2.57805,-8.32576 -24.83618,-7.69046"
         style=""
         id="path3949" />
      <path
         d="m 619.20278,599.37639 -16.33336,33.61649 5.44773,2.64691 4.79612,-8.18098 2.9577,-1.355 73.21218,35.57188 0.76271,3.16264 -3.33454,8.89112 5.31486,2.58235 16.33337,-33.61648 -5.31486,-2.58235 -4.92899,8.11642 -2.9577,1.35499 -73.21219,-35.57187 -0.7627,-3.16264 3.46741,-8.82657 -5.44774,-2.64691"
         style=""
         id="path3951" />
      <path
         d="m 659.67832,731.15037 -55.4605,-81.67516 3.508,-8.01547 -4.94152,-3.50219 -16.74214,23.62288 4.94152,3.50218 6.15487,-7.40702 2.54154,-0.009 16.95549,24.87231 -20.1589,28.44387 -29.17043,-7.63726 -1.08941,-2.03954 4.69336,-7.89964 -4.94152,-3.50218 -19.39013,27.35915 4.94152,3.50218 6.57144,-6.20646 95.94915,24.54638 5.63766,-7.95465 m -14.02182,-7.0406 -42.18355,-11.24703 17.25465,-24.34602 24.9289,35.59305"
         style=""
         id="path3953" />
    </g>
    <path
       transform="matrix(-1.0322386,-0.5906731,0.5906731,-1.0322386,179.82525,831.25629)"
       style="fill:none;stroke:none"
       d="m 494.28572,312.36218 c 0,198.82251 -161.17749,360 -360,360 -198.822509,0 -360,-161.17749 -360,-360 0,-198.82251 161.177491,-359.999997 360,-359.999997 198.82251,0 360,161.177487 360,359.999997 z"
       id="path3861"
       inkscape:export-filename="../../../tmp/buatan-indonesia.html"
       inkscape:export-xdpi="27.530001"
       inkscape:export-ydpi="27.530001" />
    <text
       sodipodi:linespacing="125%"
       id="text3891"
       style="font-size:147.72496033px;font-style:normal;font-variant:normal;font-weight:normal;font-stretch:normal;text-align:start;line-height:125%;letter-spacing:0px;word-spacing:0px;writing-mode:lr-tb;text-anchor:start;fill:#000000;fill-opacity:1;stroke:none;font-family:Bitstream Charter;-inkscape-font-specification:Bitstream Charter"
       xml:space="preserve"
       transform="translate(-121.21831,-303.04576)"
       x="-216.66711"
       y="-405.02105">INDONESIA</text>
    <text
       xml:space="preserve"
       style="font-size:40px;font-style:normal;font-variant:normal;font-weight:normal;font-stretch:normal;text-align:start;line-height:125%;letter-spacing:0px;word-spacing:0px;writing-mode:lr-tb;text-anchor:start;fill:#000000;fill-opacity:1;stroke:none;font-family:Ombilin;-inkscape-font-specification:Ombilin"
       x="-456.58896"
       y="1274.5957"
       id="text3957"
       sodipodi:linespacing="125%"><tspan
         sodipodi:role="line"
         x="-456.58896"
         y="1274.5957"
         id="tspan3961">Lisensi: CC-Attribution-ShareAlike</tspan><tspan
         sodipodi:role="line"
         x="-456.58896"
         y="1324.5957"
         id="tspan3965">(c)2011 Mohammad Anwari &lt;mdamt@di.blankon.in&gt;</tspan><tspan
         sodipodi:role="line"
         x="-456.58896"
         y="1374.5957"
         id="tspan3967">Gambar jempol lisensi public domain  </tspan><tspan
         sodipodi:role="line"
         x="-456.58896"
         y="1424.5957"
         id="tspan3969">http://en.wikipedia.org/wiki/File:Symbol_thumbs_up_color.svg</tspan></text>
  </g>
</svg>
