<?xml version="1.0" encoding="UTF-8" standalone="no"?>
<!-- Created with Inkscape (http://www.inkscape.org/) -->
<svg
   xmlns:dc="http://purl.org/dc/elements/1.1/"
   xmlns:cc="http://creativecommons.org/ns#"
   xmlns:rdf="http://www.w3.org/1999/02/22-rdf-syntax-ns#"
   xmlns:svg="http://www.w3.org/2000/svg"
   xmlns="http://www.w3.org/2000/svg"
   xmlns:sodipodi="http://sodipodi.sourceforge.net/DTD/sodipodi-0.dtd"
   xmlns:inkscape="http://www.inkscape.org/namespaces/inkscape"
   width="744.09448819"
   height="1052.3622047"
   id="svg2"
   sodipodi:version="0.32"
   inkscape:version="0.46"
   sodipodi:docname="nanggar.svg"
   inkscape:output_extension="org.inkscape.output.svg.inkscape">
  <defs
     id="defs4">
    <inkscape:perspective
       sodipodi:type="inkscape:persp3d"
       inkscape:vp_x="0 : 526.18109 : 1"
       inkscape:vp_y="0 : 1000 : 0"
       inkscape:vp_z="744.09448 : 526.18109 : 1"
       inkscape:persp3d-origin="372.04724 : 350.78739 : 1"
       id="perspective10" />
  </defs>
  <sodipodi:namedview
     id="base"
     pagecolor="#ffffff"
     bordercolor="#666666"
     borderopacity="1.0"
     gridtolerance="10000"
     guidetolerance="10"
     objecttolerance="10"
     inkscape:pageopacity="0.0"
     inkscape:pageshadow="2"
     inkscape:zoom="0.24748737"
     inkscape:cx="69.262433"
     inkscape:cy="1706.4619"
     inkscape:document-units="px"
     inkscape:current-layer="layer1"
     showgrid="false"
     showguides="true"
     inkscape:guide-bbox="true"
     inkscape:window-width="935"
     inkscape:window-height="674"
     inkscape:window-x="5"
     inkscape:window-y="32" />
  <metadata
     id="metadata7">
    <rdf:RDF>
      <cc:Work
         rdf:about="">
        <dc:format>image/svg+xml</dc:format>
        <dc:type
           rdf:resource="http://purl.org/dc/dcmitype/StillImage" />
      </cc:Work>
    </rdf:RDF>
  </metadata>
  <g
     inkscape:label="Layer 1"
     inkscape:groupmode="layer"
     id="layer1">
    <g
       id="g3189"
       transform="translate(-359.61431,-959.1779)"
       inkscape:export-filename="../../../tmp/nanggar.html"
       inkscape:export-xdpi="21.610001"
       inkscape:export-ydpi="21.610001">
      <path
         sodipodi:nodetypes="csssssccsssc"
         id="path3160"
         d="M -59.903044,321.04902 C -129.65909,321.04902 -179.68179,318.71332 -225.42897,343.75306 C -271.17615,368.79279 -313.5254,415.50266 -313.5254,453.6882 C -313.5254,530.05927 -200.2927,592.03265 -60.780611,592.03267 C 78.731482,592.03267 191.96417,530.05927 191.96418,453.6882 C 191.9642,415.50267 160.97546,383.88061 117.90882,355.87681 C 73.916769,327.27128 9.8530073,321.04903 -59.903044,321.04902 z M -64.290879,365.84895 C 47.240421,365.84896 141.28469,398.90751 141.28469,453.6882 C 141.28469,508.46887 54.26095,538.6748 -57.270343,538.6748 C -168.80165,538.67478 -262.84591,508.46888 -262.84591,453.6882 C -262.84591,398.90751 -175.82218,365.84895 -64.290879,365.84895 z"
         style="fill:#000000;fill-opacity:1;stroke:#4d4d4d;stroke-width:7.53132057;stroke-miterlimit:4;stroke-dasharray:none;stroke-dashoffset:0;stroke-opacity:1" />
      <path
         sodipodi:nodetypes="ccccccccc"
         id="rect3172"
         d="M -404.41761,236.32596 C -356.83615,229.30396 -178.813,233.54437 -105.80714,234.57111 C -89.852277,234.82181 -34.38066,245.51625 -21.950767,258.60475 L -3.6512173,283.13531 C -3.6512173,287.70025 -8.7127292,291.37526 -14.999899,291.37526 C -167.27672,288.61145 -314.07763,288.27558 -467.25761,293.38082 C -473.54478,293.38082 -487.92871,286.94817 -483.09487,275.36381 L -470.66498,261.86378 C -455.12763,247.02041 -428.24425,240.73806 -404.41761,236.32596 z"
         style="fill:#000000;fill-opacity:1;stroke:#4d4d4d;stroke-width:7.92202187;stroke-miterlimit:4;stroke-dashoffset:0;stroke-opacity:1" />
      <path
         style="fill:#000000;fill-opacity:1;stroke:#4d4d4d;stroke-width:4.0885396;stroke-miterlimit:4;stroke-dashoffset:0;stroke-opacity:1"
         d="M 54.765939,192.98249 C 72.043815,187.8317 174.01963,190.85587 200.52965,191.609 C 206.3232,191.79289 203.82454,197.96392 201.76619,209.32443 L 198.74658,227.31808 C 198.74658,230.66656 195.3623,234.36787 193.07931,234.36787 C 138.43093,236.96642 87.937717,233.71666 31.947388,234.83337 C 29.664378,234.83337 32.946075,234.64014 34.701355,226.14278 L 48.879488,196.37942 C 52.975104,193.78779 49.206638,194.96183 54.765939,192.98249 z"
         id="path3179"
         sodipodi:nodetypes="ccccccccc" />
    </g>
    <g
       id="g3194"
       transform="translate(-359.61431,-956.86821)"
       inkscape:export-filename="../../../tmp/nanggar.html"
       inkscape:export-xdpi="21.610001"
       inkscape:export-ydpi="21.610001">
      <path
         sodipodi:nodetypes="ccscccscssc"
         id="path3181"
         d="M 1142.4684,582.68919 C 1130.6413,578.08342 1102.2128,556.98458 1120.893,554.22113 C 1191.0992,512.41069 1229.3009,514.5904 1238.9845,481.20601 C 1246.07,456.77839 1155.5333,419.33107 1045.9364,412.03355 C 933.02164,412.03355 838.43493,451.54013 812.45832,488.35172 C 798.86422,497.64639 794.09176,472.64431 794.28315,466.27681 C 794.75834,454.51716 828.36248,423.28242 874.67713,400.41285 C 920.99179,377.54329 979.75734,371.1164 1050.3787,371.1164 C 1121,371.11641 1210.9876,391.53779 1255.5255,417.66412 C 1299.1264,443.24085 1342.2316,489.26875 1302.8572,508.84057 C 1248.4561,535.88172 1255.6491,532.82821 1142.4684,582.68919 z"
         style="fill:#000000;fill-opacity:1;stroke:#4d4d4d;stroke-width:7.24206209;stroke-miterlimit:4;stroke-dasharray:none;stroke-dashoffset:0;stroke-opacity:1" />
      <path
         style="fill:#000000;fill-opacity:1;stroke:#4d4d4d;stroke-width:7.57216549;stroke-miterlimit:4;stroke-dasharray:none;stroke-dashoffset:0;stroke-opacity:1"
         d="M 1226.4126,368.85567 C 1181.0342,347.48806 1155.4708,341.39555 1045.9429,333.41257 C 933.0993,333.41257 838.57217,376.62999 812.61192,416.89928 C 799.02638,427.06698 794.25693,399.71648 794.4482,392.75088 C 794.92309,379.88665 828.50606,345.71803 874.79154,320.70035 C 921.07702,295.68266 979.80556,288.65208 1050.3824,288.65208 C 1120.9592,288.65209 1218.8813,310.99166 1263.391,339.57201 C 1306.9644,367.55116 1353.5941,401.08807 1319.2671,436.60572 C 1298.9353,414.45023 1252.9049,380.23709 1226.4126,368.85567 z"
         id="path3183"
         sodipodi:nodetypes="ccccscscc" />
    </g>
    <path
       sodipodi:nodetypes="ccscccscssc"
       id="path3185"
       d="M 214.66659,-395.61382 C 202.85412,-401.08513 174.46068,-426.14896 193.11781,-429.43173 C 263.23744,-479.09939 301.39199,-476.51006 311.06365,-516.1682 C 318.14047,-545.18638 227.7154,-589.67098 118.25364,-598.33989 C 5.4781642,-598.33989 -77.880208,-546.35828 -123.01769,-506.66949 C -136.59502,-495.62813 -126.2093,-538.46069 -126.01815,-546.02481 C -93.218662,-585.2482 -73.146974,-597.59205 -24.510115,-620.22562 C 33.869246,-647.39294 52.156224,-646.94638 122.69046,-646.94638 C 193.22464,-646.94637 283.10134,-622.6873 327.58427,-591.65119 C 371.13136,-561.26796 414.18344,-506.59028 374.8576,-483.34043 C 320.52363,-451.21758 327.70769,-454.84492 214.66659,-395.61382 z"
       style="fill:#000000;fill-opacity:1;stroke:#4d4d4d;stroke-width:7.88839626;stroke-miterlimit:4;stroke-dasharray:none;stroke-dashoffset:0;stroke-opacity:1"
       inkscape:export-filename="../../../tmp/nanggar.html"
       inkscape:export-xdpi="21.610001"
       inkscape:export-ydpi="21.610001" />
    <path
       style="fill:#000000;fill-opacity:1;stroke:#4d4d4d;stroke-width:5.56177616;stroke-miterlimit:4;stroke-dashoffset:0;stroke-opacity:1"
       d="M 1058.8225,-608.92652 C 1081.7347,-600.16273 1201.6218,-495.9114 1229.5996,-473.13097 C 1235.698,-468.13164 1227.8854,-463.54805 1216.245,-453.00371 L 1198.0673,-436.10346 C 1195.2909,-432.49281 1188.5705,-431.30621 1186.1074,-433.19807 C 1145.4131,-470.57972 1073.208,-521.02911 1011.8729,-566.22307 C 1009.4099,-568.11496 1011.7362,-577.96756 1020.6755,-585.67574 L 1049.655,-610.14157 C 1056.2226,-609.54216 1051.1831,-611.39908 1058.8225,-608.92652 z"
       id="path3187"
       sodipodi:nodetypes="ccccccccc"
       inkscape:export-filename="../../../tmp/nanggar.html"
       inkscape:export-xdpi="21.610001"
       inkscape:export-ydpi="21.610001" />
    <text
       xml:space="preserve"
       style="font-size:123.28316498px;font-style:normal;font-variant:normal;font-weight:normal;font-stretch:normal;fill:#000000;fill-opacity:1;stroke:none;stroke-width:1px;stroke-linecap:butt;stroke-linejoin:miter;stroke-opacity:1;font-family:Liberation Sans;-inkscape-font-specification:Liberation Sans"
       x="-622.15015"
       y="-184.51645"
       id="text3198"
       inkscape:export-filename="../../../tmp/nanggar.html"
       inkscape:export-xdpi="21.610001"
       inkscape:export-ydpi="21.610001"><tspan
         sodipodi:role="line"
         id="tspan3200"
         x="-622.15015"
         y="-184.51645">nang</tspan></text>
    <text
       xml:space="preserve"
       style="font-size:123.28316498px;font-style:normal;font-variant:normal;font-weight:normal;font-stretch:normal;fill:#000000;fill-opacity:1;stroke:none;stroke-width:1px;stroke-linecap:butt;stroke-linejoin:miter;stroke-opacity:1;font-family:Liberation Sans;-inkscape-font-specification:Liberation Sans"
       x="39.522518"
       y="-184.51645"
       id="text3202"
       inkscape:export-filename="../../../tmp/nanggar.html"
       inkscape:export-xdpi="21.610001"
       inkscape:export-ydpi="21.610001"><tspan
         sodipodi:role="line"
         id="tspan3204"
         x="39.522518"
         y="-184.51645">ga</tspan></text>
    <text
       xml:space="preserve"
       style="font-size:123.28316498px;font-style:normal;font-variant:normal;font-weight:normal;font-stretch:normal;fill:#000000;fill-opacity:1;stroke:none;stroke-width:1px;stroke-linecap:butt;stroke-linejoin:miter;stroke-opacity:1;font-family:Liberation Sans;-inkscape-font-specification:Liberation Sans"
       x="866.13605"
       y="-171.72461"
       id="text3206"
       inkscape:export-filename="../../../tmp/nanggar.html"
       inkscape:export-xdpi="21.610001"
       inkscape:export-ydpi="21.610001"><tspan
         sodipodi:role="line"
         id="tspan3208"
         x="866.13605"
         y="-171.72461">r</tspan></text>
  </g>
</svg>
